<svg xmlns="http://www.w3.org/2000/svg" viewBox="0 0 19.8 19.8"><defs><style>.cls-1{fill:#f4e9f1;fill-rule:evenodd;}.cls-2{fill:#9e1f6d;}</style></defs><g id="Layer_2" data-name="Layer 2"><g id="Layer_1-2" data-name="Layer 1"><g id="Layer_2-2" data-name="Layer 2"><g id="Layer_1-2-2" data-name="Layer 1-2"><path class="cls-1" d="M19.8,9.91A9.9,9.9,0,1,1,9.9,0,9.9,9.9,0,0,1,19.8,9.91Z"/><path class="cls-2" d="M16,15.17a1,1,0,0,1-.39.67,1,1,0,0,1-1,.13.92.92,0,0,1-.59-.81,5.88,5.88,0,0,0-.12-1.46,9,9,0,0,0-.79-2.7A9.3,9.3,0,0,0,10,7.41a9.3,9.3,0,0,0-3.6-1.5,9.49,9.49,0,0,0-1.59-.14,1,1,0,0,1-.24-2h.07a1.41,1.41,0,0,0,.29,0h1A9.61,9.61,0,0,1,8,4.23a11,11,0,0,1,2.85,1.31A11,11,0,0,1,13.1,7.43a11.39,11.39,0,0,1,2,3,11.06,11.06,0,0,1,.78,2.38A7.39,7.39,0,0,1,16,14.14a1.13,1.13,0,0,0,0,.26v.77Z"/><path class="cls-2" d="M4.94,7.44a7.55,7.55,0,0,1,5.56,2.64,7.38,7.38,0,0,1,1.79,3.84,8.47,8.47,0,0,1,.08,1.13,1,1,0,0,1-1.95.25,2.81,2.81,0,0,1,0-.41A5.65,5.65,0,0,0,5.74,9.51a6.64,6.64,0,0,0-1-.1,1,1,0,0,1-.88-.64,1,1,0,0,1,.61-1.28,1,1,0,0,1,.39,0Z"/><path class="cls-2" d="M7.75,14.05a2,2,0,1,1-2-2A2,2,0,0,1,7.75,14.05Z"/></g></g></g></g></svg>