<svg xmlns="http://www.w3.org/2000/svg" viewBox="0 0 19.8 19.8"><defs><style>.cls-1{fill:#f4e9f1;fill-rule:evenodd;}.cls-2{fill:#9e1f6d;}</style></defs><g id="Layer_2" data-name="Layer 2"><g id="Layer_1-2" data-name="Layer 1"><g id="Layer_2-2" data-name="Layer 2"><g id="Layer_1-2-2" data-name="Layer 1-2"><path class="cls-1" d="M19.8,9.91A9.9,9.9,0,1,1,9.9,0,9.9,9.9,0,0,1,19.8,9.91Z"/><g id="Layer_2-2-2" data-name="Layer 2-2"><g id="brand"><g id="icon--black"><path class="cls-2" d="M10.87,16.61l1.31.34a2.21,2.21,0,0,0,2.7-1.55h0l.32-1.23A6.73,6.73,0,0,1,10.87,16.61Z"/><path class="cls-2" d="M16.61,8.84l.32-1.21a2.2,2.2,0,0,0-1.54-2.69h0l-1.25-.33A6.66,6.66,0,0,1,16.61,8.84Z"/><path class="cls-2" d="M4.43,14.89l1.4.38a6.74,6.74,0,0,1-2.58-4.52l-.39,1.46A2.21,2.21,0,0,0,4.43,14.89Z"/><path class="cls-2" d="M9,3.24,7.62,2.88a2.21,2.21,0,0,0-2.7,1.56L4.55,5.86A6.76,6.76,0,0,1,9,3.24Z"/><path class="cls-2" d="M9.9,16.08A6.17,6.17,0,1,0,3.74,9.9h0a6.16,6.16,0,0,0,6.15,6.17ZM13.39,13A1.76,1.76,0,1,1,12,10.94,1.76,1.76,0,0,1,13.39,13ZM10.83,7.68a1.76,1.76,0,1,1,1.4,2.06h0a1.75,1.75,0,0,1-1.39-2Zm-.75,1.43a.78.78,0,1,1-.92.61.79.79,0,0,1,.92-.61ZM6.41,6.83a1.76,1.76,0,1,1,1.4,2.06,1.76,1.76,0,0,1-1.4-2.06Zm1.16,3.26a1.76,1.76,0,1,1-2.06,1.4A1.76,1.76,0,0,1,7.57,10.09Z"/></g></g></g></g></g></g></g></svg>