<svg xmlns="http://www.w3.org/2000/svg" viewBox="0 0 19.81 19.81"><defs><style>.cls-1{fill:#f4e9f1;}.cls-2{fill:#9e1f6d;fill-rule:evenodd;}</style></defs><g id="Layer_2" data-name="Layer 2"><g id="Layer_1-2" data-name="Layer 1"><g id="Layer_2-2" data-name="Layer 2"><g id="Layer_1-2-2" data-name="Layer 1-2"><circle class="cls-1" cx="9.9" cy="9.9" r="9.9"/><path class="cls-2" d="M12.9,4h-6a3,3,0,0,0-3,3v5.9a3,3,0,0,0,3,3h6a3,3,0,0,0,3-3V7A3,3,0,0,0,12.9,4Zm1.7,8.9a1.75,1.75,0,0,1-1.7,1.7h-6a1.74,1.74,0,0,1-1.7-1.7V7A1.75,1.75,0,0,1,6.9,5.3h6A1.7,1.7,0,0,1,14.6,7V12.9Z"/><path class="cls-2" d="M9.9,6.9A3,3,0,0,0,6.8,9.8v.1A3.1,3.1,0,0,0,13,10,3.13,3.13,0,0,0,9.9,6.9Zm0,4.9A1.8,1.8,0,1,1,11.7,10a1.79,1.79,0,0,1-1.8,1.8Z"/><path class="cls-2" d="M13.7,6.8a.7.7,0,0,1-1.4,0c0-.4.4-.8.7-.7a.69.69,0,0,1,.7.66Z"/></g></g></g></g></svg>