<svg xmlns="http://www.w3.org/2000/svg" viewBox="0 0 19.8 19.8"><defs><style>.cls-1{fill:#f4e9f1;}.cls-2{fill:#9e1f6d;}</style></defs><g id="Layer_2" data-name="Layer 2"><g id="Layer_1-2" data-name="Layer 1"><g id="Layer_2-2" data-name="Layer 2"><g id="Layer_1-2-2" data-name="Layer 1-2"><circle class="cls-1" cx="9.9" cy="9.9" r="9.9"/></g></g><path class="cls-2" d="M15.7,6a7.37,7.37,0,0,1-1.4.4,2.07,2.07,0,0,0,1-1.4,4.71,4.71,0,0,1-1.5.6,2.14,2.14,0,0,0-1.7-.8A2.46,2.46,0,0,0,9.7,7.3a1.27,1.27,0,0,0,.1.6A6.67,6.67,0,0,1,4.9,5.3a5,5,0,0,0-.3,1.3,2.66,2.66,0,0,0,1,2.1,2.28,2.28,0,0,1-1.1-.3h0a2.58,2.58,0,0,0,1.9,2.5,1.27,1.27,0,0,1-.6.1H5.4a2.34,2.34,0,0,0,2.2,1.7,4.36,4.36,0,0,1-2.9,1.1H4.1a6.38,6.38,0,0,0,3.6,1.1c4.3,0,6.7-3.8,6.7-7.2V7.4A8.64,8.64,0,0,0,15.7,6Z"/></g></g></svg>