<svg xmlns="http://www.w3.org/2000/svg" viewBox="0 0 19.8 19.8"><defs><style>.cls-1{fill:#f4e9f1;fill-rule:evenodd;}.cls-2{fill:#9e1f6d;}</style></defs><g id="Layer_2" data-name="Layer 2"><g id="Layer_1-2" data-name="Layer 1"><g id="Layer_2-2" data-name="Layer 2"><g id="Layer_1-2-2" data-name="Layer 1-2"><path class="cls-1" d="M19.8,9.91A9.9,9.9,0,1,1,9.9,0,9.9,9.9,0,0,1,19.8,9.91Z"/><path class="cls-2" d="M10.48,9.05a2.77,2.77,0,0,1,.85-.82,3,3,0,0,1,1.78-.33,2.67,2.67,0,0,1,1.23.4,2.25,2.25,0,0,1,.92,1.45,7.05,7.05,0,0,1,.16,1.65v3.89c0,.12,0,.13-.13.13h-2c-.1,0-.12,0-.12-.12V11.6a3.94,3.94,0,0,0-.07-.77,1.07,1.07,0,0,0-1.17-1,1,1,0,0,0-.17,0,1.18,1.18,0,0,0-1.09,1.15,4.9,4.9,0,0,0-.06.77v3.49c0,.1,0,.13-.14.13h-2c-.11,0-.14,0-.14-.14V8.2c0-.11,0-.14.14-.14h1.94c.09,0,.12,0,.12.12A4.24,4.24,0,0,0,10.48,9.05Z"/><path class="cls-2" d="M4.56,11.75V8.2c0-.12,0-.14.15-.14h2c.1,0,.13,0,.13.12v7.14c0,.1,0,.12-.12.12h-2c-.11,0-.12,0-.12-.14Z"/><path class="cls-2" d="M7,5.71A1.33,1.33,0,1,1,5.66,4.39h0A1.34,1.34,0,0,1,7,5.71Z"/></g></g></g></g></svg>