<svg xmlns="http://www.w3.org/2000/svg" viewBox="0 0 19.8 19.8"><defs><style>.cls-1{fill:#f4e9f1;fill-rule:evenodd;}.cls-2{fill:#9e1f6d;}</style></defs><g id="Layer_2" data-name="Layer 2"><g id="Layer_1-2" data-name="Layer 1"><g id="Layer_2-2" data-name="Layer 2"><g id="Layer_1-2-2" data-name="Layer 1-2"><path class="cls-1" d="M19.8,9.91A9.9,9.9,0,1,1,9.9,0,9.9,9.9,0,0,1,19.8,9.91Z"/><path class="cls-2" d="M16.67,9a5.79,5.79,0,0,0-.24-1.17A6.83,6.83,0,0,0,16,6.69a6.61,6.61,0,0,0-.79-1.23,7.11,7.11,0,0,0-.9-.92,7.21,7.21,0,0,0-1.07-.73,6,6,0,0,0-1-.46,5.68,5.68,0,0,0-1-.27,8.3,8.3,0,0,0-1-.14H9.52L9.19,3A6.67,6.67,0,0,0,5.63,4.45a4.78,4.78,0,0,0-.54.47,7.51,7.51,0,0,0-1,1.25A6.89,6.89,0,0,0,3.24,8.3a7.34,7.34,0,0,0-.14.94,7.42,7.42,0,0,0,.07,1.56,6.77,6.77,0,0,0,.35,1.34,7.44,7.44,0,0,0,.67,1.32A6.7,6.7,0,0,0,5.46,14.9a6.84,6.84,0,0,0,7,1.13c.54.28,1.07.58,1.6.86h.11l.06-.1V15a6.94,6.94,0,0,0,1.9-2.55,6.67,6.67,0,0,0,.46-1.64A6.18,6.18,0,0,0,16.67,9ZM7.22,13.41a3.48,3.48,0,0,1-.77-.81,1.49,1.49,0,0,1,.4.15,2,2,0,0,0,1.85-.33,2.06,2.06,0,0,0,.69-1.13,2.57,2.57,0,0,0-.09-1.23c-.11-.38-.25-.75-.33-1.14a3.38,3.38,0,0,1,0-1.1A2.87,2.87,0,0,1,9.6,6.55a2.8,2.8,0,0,1,2.27-.94h0A1.26,1.26,0,0,0,11.45,7,3.49,3.49,0,0,0,12,8c.24.33.49.64.71,1a4.53,4.53,0,0,1,.46,1,3.58,3.58,0,0,1,.13,1.42A3.08,3.08,0,0,1,13,12.48,3.67,3.67,0,0,1,10.83,14,4,4,0,0,1,7.22,13.41Z"/></g></g></g></g></svg>