<svg xmlns="http://www.w3.org/2000/svg" viewBox="0 0 19.8 19.8"><defs><style>.cls-1{fill:#f4e9f1;fill-rule:evenodd;}.cls-2{fill:#9e1f6d;}</style></defs><g id="Layer_2" data-name="Layer 2"><g id="Layer_1-2" data-name="Layer 1"><g id="Layer_2-2" data-name="Layer 2"><g id="Layer_1-2-2" data-name="Layer 1-2"><path class="cls-1" d="M19.8,9.91A9.9,9.9,0,1,1,9.9,0,9.9,9.9,0,0,1,19.8,9.91Z"/><path class="cls-2" d="M9.73,14.11v3.23l-.15-.06L6.91,15.74Z"/><path class="cls-2" d="M12.92,15.74l-2.65,1.53h0a.44.44,0,0,1-.16.06V14.11Z"/><polygon class="cls-2" points="13.1 12.17 13.1 15.43 10.36 13.85 10.27 13.8 13.1 12.17"/><path class="cls-2" d="M16.26,13.78a.61.61,0,0,1-.16.12l-2.64,1.53V12.17Z"/><path class="cls-2" d="M16.46,10.23v3a.61.61,0,0,1,0,.19l-2.8-1.61Z"/><polygon class="cls-2" points="16.28 9.91 13.46 11.55 13.46 8.28 16.28 9.91"/><path class="cls-2" d="M16.46,6.55V9.6L13.64,8l2.8-1.61A.88.88,0,0,1,16.46,6.55Z"/><path class="cls-2" d="M16.26,6.05l-2.8,1.61V4.4L16.1,5.93A.61.61,0,0,1,16.26,6.05Z"/><polygon class="cls-2" points="13.1 4.4 13.1 7.66 10.27 6.03 13.1 4.4"/><path class="cls-2" d="M12.92,4.09,10.09,5.72V2.49a.67.67,0,0,1,.18.07Z"/><path class="cls-2" d="M9.73,2.49V5.72L6.91,4.09,9.55,2.56h0A.56.56,0,0,1,9.73,2.49Z"/><polygon class="cls-2" points="9.55 6.03 6.73 7.66 6.73 4.4 9.55 6.03"/><path class="cls-2" d="M6.37,4.4V7.66L3.57,6.05l.15-.12Z"/><path class="cls-2" d="M6.19,8,3.34,9.58l.05-3a.61.61,0,0,1,0-.19Z"/><polygon class="cls-2" points="6.37 8.28 6.37 11.55 3.54 9.91 6.37 8.28"/><path class="cls-2" d="M6.19,11.86l-2.8,1.61a.61.61,0,0,1,0-.19v-3Z"/><path class="cls-2" d="M6.37,12.17v3.26L3.72,13.9l-.15-.12,1.07-.61Z"/><polygon class="cls-2" points="9.55 13.8 9.46 13.85 6.73 15.43 6.73 12.17 9.55 13.8"/><polygon class="cls-2" points="9.73 10.02 9.73 13.49 6.91 11.86 6.73 11.75 6.73 8.28 9.73 10.02"/><polygon class="cls-2" points="13.1 8.28 13.1 11.75 12.92 11.86 10.09 13.49 10.09 10.02 13.1 8.28"/><polygon class="cls-2" points="12.92 7.97 9.91 9.71 6.91 7.97 9.73 6.34 9.91 6.24 10.09 6.34 12.92 7.97"/></g></g></g></g></svg>