<svg xmlns="http://www.w3.org/2000/svg" viewBox="0 0 19.8 19.8"><defs><style>.cls-1{fill:#f4e9f1;fill-rule:evenodd;}.cls-2{fill:#9e1f6d;}</style></defs><g id="Layer_2" data-name="Layer 2"><g id="Layer_1-2" data-name="Layer 1"><g id="Layer_2-2" data-name="Layer 2"><g id="Layer_1-2-2" data-name="Layer 1-2"><path class="cls-1" d="M19.8,9.91A9.9,9.9,0,1,1,9.9,0,9.9,9.9,0,0,1,19.8,9.91Z"/><g id="Layer_1-2-2-2" data-name="Layer 1-2-2"><path class="cls-2" d="M16.49,11.88a7.22,7.22,0,0,0,.29-1.66V9.69a7.51,7.51,0,0,0-.15-1.16,6.81,6.81,0,0,0-1.8-3.33A6.89,6.89,0,0,0,3,9.72v.4a7.83,7.83,0,0,0,.2,1.36,6.7,6.7,0,0,0,1.94,3.35,6.78,6.78,0,0,0,2.18,1.4,7,7,0,0,0,5.56-.17,2.5,2.5,0,0,1,.64-.25A.84.84,0,0,1,14,16a4.87,4.87,0,0,0,2.41.38.8.8,0,0,0,.42-.16V16.1a1.34,1.34,0,0,0-.31-.36,2.26,2.26,0,0,1-.6-.77,2,2,0,0,1,0-1.44A14.57,14.57,0,0,1,16.49,11.88Zm-3,3a3,3,0,0,0-.87.26,6.46,6.46,0,0,1-1.43.53,6.82,6.82,0,0,1-2.7,0,7,7,0,0,1-2-.87,6.16,6.16,0,0,1-1.62-1.64,5,5,0,0,1-.34-.59,7.15,7.15,0,0,1-.43-1.08A5.27,5.27,0,0,1,4,10.3a4.34,4.34,0,0,1,0-.51A5,5,0,0,1,4.17,8.3h0a6.65,6.65,0,0,1,.71-1.53L5,6.58A6.55,6.55,0,0,1,6.41,5.16a6.72,6.72,0,0,1,2.09-1,7.17,7.17,0,0,1,2.77,0,7,7,0,0,1,2.13,1,6.5,6.5,0,0,1,1.38,1.39l.13.21a6.86,6.86,0,0,1,.68,1.42,1.54,1.54,0,0,0,.1.35,6.4,6.4,0,0,1,.13,1.75v.07a4.47,4.47,0,0,1-.3,1.45c-.1.26-.21.51-.33.76a5.22,5.22,0,0,0-.29.87,3.26,3.26,0,0,0-.12.76,2.75,2.75,0,0,0,.14.81,1.14,1.14,0,0,0,.09.3,6.51,6.51,0,0,0-1.49-.43Z"/><path class="cls-2" d="M9.91,7.48A.65.65,0,0,1,10.53,7h1.7a.64.64,0,0,1,.63.49.86.86,0,0,1-.13.71.71.71,0,0,1-.53.24H10.54A.71.71,0,0,1,10,8.1,1,1,0,0,1,10,7.49M7.28,9.27a1.12,1.12,0,0,1,.48-.06H12.2a.69.69,0,0,1,.66.57.73.73,0,0,1-.33.79,1,1,0,0,1-.54.09H7.55a.66.66,0,0,1-.6-.38,1.06,1.06,0,0,1-.06-.5.68.68,0,0,1,.39-.51m-.4,2.92a.69.69,0,0,1,.6-.77H9.19a.67.67,0,0,1,.62.36,1.06,1.06,0,0,1,0,.66.71.71,0,0,1-.62.43H7.5a.67.67,0,0,1-.62-.67Z"/></g></g></g></g></g></svg>