<svg id="Layer_1" data-name="Layer 1" xmlns="http://www.w3.org/2000/svg" viewBox="0 0 19.8 19.8"><g id="Layer_2" data-name="Layer 2"><g id="Layer_1-2" data-name="Layer 1-2"><g id="Layer_2-2" data-name="Layer 2-2"><g id="Layer_1-2-2" data-name="Layer 1-2-2"><path d="M19.8,9.9A9.9,9.9,0,1,1,9.9,0a9.85884,9.85884,0,0,1,9.9,9.9Z" transform="translate(0 0)" style="fill:#f4e9f1;fill-rule:evenodd"/></g></g></g></g><path d="M4.37918,15.3153c0-.49127-.00241-.98255.001-1.47379a2.63685,2.63685,0,0,1,.04938-.7251,1.53072,1.53072,0,0,1,1.5157-1.1509c1.35688-.00109,2.71377.00175,4.07064-.00129a2.0332,2.0332,0,0,0,1.98556-1.55335,2.00562,2.00562,0,1,0-3.36408,1.006c.02405.02541.04545.05333.0914.10764-.10491.00477-.18152.0112-.25813.01127-.75219.00074-1.5049.018-2.25639-.00477a2.07589,2.07589,0,0,0-1.78985.68312,4.72309,4.72309,0,0,1-.35474-1.266A5.93951,5.93951,0,0,1,5.63436,5.85048,5.819,5.819,0,0,1,9.6701,3.95235c.74389-.0456,1.48917-.00676,2.2336-.02186.14506-.00294.18911.04251.18732.18879-.00767.62672-.00453,1.2536-.00332,1.88041a1.937,1.937,0,0,0,1.987,1.98084c.61207.00089,1.22414-.00063,1.83621-.00144.09737-.00013.19612-.01479.19137.13761a23.19117,23.19117,0,0,1-.07693,2.82681,5.85929,5.85929,0,0,1-2.11731,3.7138,5.96119,5.96119,0,0,1-3.98053,1.388c-1.72553-.01117-3.45118-.00251-5.17678-.00267-.28571,0-.28571-.00052-.2516-.2756a1.99392,1.99392,0,0,1,1.90468-1.7618c.22088-.00934.44234-.0048.66354-.007.05268-.00053.11283-.00254.11952-.06851.00715-.07044-.05207-.07825-.10556-.08045a2.73,2.73,0,0,0-1.85667.41747,2.36981,2.36981,0,0,0-.78946,1.066Z" transform="translate(0 0)" style="fill:#9c246b"/><path d="M9.90687,11.37772A1.419,1.419,0,0,1,8.79609,9.27021a1.44028,1.44028,0,0,1,2.68608.71271,1.43644,1.43644,0,0,1-1.36131,1.38744C10.04719,11.37159,9.9733,11.37772,9.90687,11.37772Z" transform="translate(0 0)" style="fill:#9c246b"/><path d="M15.851,4.22772a.731.731,0,0,1,.243.59084c.00484.80291-.00041,1.60588.00513,2.40877.00094.13587-.04266.17783-.17707.17682-.64082-.00481-1.28178.00509-1.92254-.00263a1.23282,1.23282,0,0,1-.95493-.42342.36781.36781,0,0,1,.14483-.23878q1.1994-1.202,2.402-2.40078C15.66036,4.26984,15.72321,4.16733,15.851,4.22772Z" transform="translate(0 0)" style="fill:#9c246b"/><path d="M15.851,4.22772c-.08275.00085-.13074.05891-.1826.11077q-1.23878,1.23886-2.47728,2.478c-.05134.05139-.09783.10762-.14657.1616a1.31611,1.31611,0,0,1-.38162-.99762c.00044-.62509.00875-1.25019.00668-1.87525-.00041-.12174.03022-.16679.15931-.16587.80178.00573,1.60363.00083,2.40541.00628A.75171.75171,0,0,1,15.851,4.22772Z" transform="translate(0 0)" style="fill:#9c246b"/></svg>