<svg width="88" height="88" viewBox="0 0 88 88" fill="none" xmlns="http://www.w3.org/2000/svg">
<path fill-rule="evenodd" clip-rule="evenodd" d="M46.2497 32.8385L46.225 32.8337L46.2247 32.8384C45.8901 32.7667 45.0288 32.7179 44.0576 32.7139L43.9541 32.7137C42.931 32.7137 42.0078 32.7636 41.6585 32.8385H41.6335C41.6086 32.8385 41.6086 32.8135 41.6086 32.8135V31.3164C41.6086 31.3164 41.6086 31.2914 41.6335 31.2914C41.9828 31.2166 42.9061 31.1667 43.9291 31.1667C44.9522 31.1667 45.8754 31.2166 46.2746 31.2914C46.2871 31.2914 46.2933 31.2914 46.2965 31.2945C46.2996 31.2977 46.2996 31.3039 46.2996 31.3164V32.8135L46.2746 32.8385H46.2497ZM43.836 31.1917C42.8605 31.1955 41.9933 31.2453 41.6335 31.3412V31.3164C41.9724 31.2438 42.8282 31.1946 43.836 31.1917Z" fill="url(#paint0_linear_438_54967)"/>
<path fill-rule="evenodd" clip-rule="evenodd" d="M40.5356 31.3161C40.5356 31.3161 40.5605 31.3169 40.5605 31.341V35.6683L42.0078 36.2815C42.2823 36.4063 42.5568 36.4812 42.8562 36.4812H43.8543V36.5311H43.8791V33.9361L43.8543 33.936V33.9111C43.8543 33.9111 43.8543 33.8861 43.8792 33.8861H45.3764C45.3764 33.8861 45.4013 33.8861 45.4013 33.9111C45.4013 33.9111 45.4262 33.9119 45.4262 33.9361V35.6446L46.8236 36.3065C47.0981 36.4313 47.3725 36.5061 47.672 36.5061H47.9215V33.936C47.9215 33.936 47.9215 33.9111 47.9464 33.9111L49.5184 33.9111C49.5184 33.9111 49.5433 33.9111 49.5433 33.9361V36.9054C49.5433 37.4185 49.2056 37.8642 48.7246 38.0061C48.5998 38.0526 48.4639 38.0781 48.3207 38.0781H47.647C47.3476 38.0781 47.0482 38.0033 46.7737 37.8785L45.3764 37.2297V38.0532C45.3764 38.0532 45.3764 38.0781 45.3514 38.0781H42.8063C42.5068 38.0781 42.2074 38.0033 41.9329 37.8785L40.5356 37.2297V38.0282C40.5356 40.0992 38.8389 41.8459 36.7678 41.8459C34.6968 41.8459 33 40.1491 33 38.0781C33.025 37.08 33.4242 36.1568 34.1229 35.4581L34.1367 35.4443L34.1478 35.4332L35.1958 34.3852H35.2457L36.2937 35.4332V35.4831L36.2753 35.5015L36.2688 35.508L35.2208 36.556C34.8216 36.9553 34.597 37.4793 34.572 38.0532C34.572 39.2509 35.5452 40.249 36.7678 40.249C37.9655 40.249 38.9636 39.2509 38.9636 38.0532V31.3161C38.9636 31.3161 38.9636 31.2911 38.9886 31.2911H40.4857C40.5107 31.2911 40.5356 31.2911 40.5356 31.3161ZM47.9963 36.5311H47.9714V33.936H47.9963V36.5311ZM46.8485 37.8536C47.1198 37.9769 47.4155 38.0515 47.7115 38.0532H47.672C47.3725 38.0532 47.0731 37.9783 46.7986 37.8535L45.3554 37.1817L46.8485 37.8536ZM45.3514 37.1799V38.0532H45.3278C45.3513 38.0522 45.3513 38.0282 45.3513 38.0282L45.3514 37.1799ZM40.5106 37.1799L41.925 37.8499L40.5106 37.1914V37.1799Z" fill="url(#paint1_linear_438_54967)"/>
<path fill-rule="evenodd" clip-rule="evenodd" d="M50.5418 39.1761L50.5664 40.6482H52.0831L52.0634 40.6483L50.5664 40.6482C50.5664 40.6482 50.5414 40.6483 50.5414 40.6233V40.6732H52.0385C52.4698 40.6732 52.8766 40.5691 53.2354 40.3846C54.1076 39.9594 54.7084 39.0641 54.7084 38.0282V33.9361L54.7084 33.934V33.8862C54.693 33.9017 54.6871 33.898 54.6789 33.893C54.6739 33.8899 54.668 33.8862 54.6585 33.8862H53.1613C53.1364 33.8862 53.1364 33.9112 53.1364 33.9112V38.0283C53.1364 38.6272 52.6623 39.1012 52.0634 39.1012H50.5663C50.5414 39.1012 50.5414 39.1262 50.5414 39.1262L50.5418 39.1761ZM53.1614 38.0282V33.9361L53.1613 38.0397L53.1614 38.0282Z" fill="url(#paint2_linear_438_54967)"/>
<path fill-rule="evenodd" clip-rule="evenodd" d="M50.5415 31.2911H52.0635C52.0635 31.2911 52.0885 31.2911 52.0885 31.3161V38.0282C52.0885 38.0282 52.0885 38.0531 52.0636 38.0532C52.0636 38.0532 52.0636 38.0781 52.0386 38.0781H50.5415C50.5415 38.0781 50.5165 38.0781 50.5165 38.0532V31.3161C50.5165 31.3161 50.5165 31.2911 50.5415 31.2911ZM50.5664 38.0532L50.5415 31.3293V38.0532H50.5664Z" fill="url(#paint3_linear_438_54967)"/>
<path fill-rule="evenodd" clip-rule="evenodd" d="M41.1345 41.0723C41.1345 41.0723 41.1502 41.0723 41.1442 41.0974H41.1844L42.2324 42.1454V42.1953L41.1844 43.2433C40.7602 43.6425 40.5356 44.1914 40.5107 44.7653C40.5107 45.3642 40.7352 45.9131 41.1594 46.3373C41.1757 46.3536 41.1921 46.3696 41.2088 46.3852C41.602 46.7391 42.121 46.9576 42.6931 46.961L42.6815 46.961C42.2107 46.961 41.7768 46.813 41.4213 46.5626C41.7997 46.8406 42.2494 46.9861 42.7314 46.9861C43.2554 46.9861 43.8044 46.7865 44.3034 46.4371C44.7026 46.1377 44.9522 45.6636 44.9522 45.1646V41.7461L44.9272 41.746V41.7211H46.4244L46.4742 41.7212C46.4742 41.7212 46.4992 41.7212 46.4992 41.7461V42.8439L48.7199 42.844H48.7948C49.6298 42.7486 50.4648 41.8548 50.5583 41.7547L50.5664 41.7461H52.0154L50.5237 41.746C50.5354 41.7318 50.5415 41.7211 50.5415 41.7211H52.0386V41.7461H52.0635C52.0635 41.7461 52.0885 41.7461 52.0885 41.7711V44.7653C52.0885 45.7611 51.4368 46.598 50.552 46.8952C50.3073 46.9861 50.0431 47.0359 49.768 47.0359C48.5453 47.0359 47.5472 46.0628 47.4973 44.8401V44.4159H46.4743V44.7403C46.4743 46.8113 44.7775 48.5081 42.7065 48.5081C40.6354 48.5081 38.9387 46.8113 38.9387 44.7403C38.9636 43.7422 39.3629 42.819 40.0615 42.1203L41.1095 41.0723H41.1345ZM40.0865 42.1203C39.8732 42.3418 39.6842 42.5875 39.5257 42.854C39.6824 42.5997 39.8701 42.3617 40.0865 42.1454L41.1345 41.0974L40.6105 41.5963L40.0865 42.1203ZM47.5971 44.8402C47.6181 45.3546 47.8025 45.8204 48.1001 46.1874C47.7747 45.8131 47.5692 45.3282 47.5472 44.7902V44.4784L47.6221 44.7404C47.5971 44.7404 47.5971 44.7903 47.5971 44.7903V44.8402ZM49.0693 44.3161C49.718 44.1414 50.292 43.6673 50.4916 43.4927V44.7153C50.4916 45.1146 50.1672 45.414 49.7929 45.414C49.4186 45.414 49.0942 45.1146 49.0942 44.7153L49.0693 44.3161Z" fill="url(#paint4_linear_438_54967)"/>
<path d="M50.5237 41.746C50.3934 41.9044 49.5692 42.7523 48.7449 42.8439L48.7199 42.844C49.5439 42.7499 50.3457 41.9004 50.4756 41.7628L50.4916 41.746H50.5237Z" fill="url(#paint5_linear_438_54967)"/>
<path d="M44.9272 41.746V45.1146C44.9272 45.6386 44.6777 46.1127 44.2785 46.4121C43.7545 46.7864 43.2055 46.961 42.7065 46.961L42.6931 46.961C43.2378 46.9582 43.758 46.759 44.2535 46.4121C44.6527 46.1376 44.9023 45.6635 44.9023 45.1645V41.771C44.9023 41.771 44.9023 41.746 44.9272 41.746Z" fill="url(#paint6_linear_438_54967)"/>
<path d="M41.8581 44.0169L42.931 45.0649L44.004 43.992V43.967L44.0039 43.942L42.9559 42.894H42.906L41.858 43.942C41.8455 43.9545 41.8393 43.9607 41.8393 43.9669C41.8393 43.9732 41.8455 43.9794 41.858 43.9919L41.8581 44.0169Z" fill="url(#paint7_linear_438_54967)"/>
<path fill-rule="evenodd" clip-rule="evenodd" d="M47.1479 40.5235C48.1709 40.5235 49.0941 40.5734 49.4435 40.6483L49.4438 40.6433L49.4685 40.648H49.4935L49.5184 40.6231V39.126C49.5184 39.101 49.5184 39.101 49.4935 39.101C49.0693 39.0261 48.171 38.9762 47.148 38.9762C46.1249 38.9762 45.2017 39.0261 44.8524 39.101C44.8274 39.101 44.8274 39.126 44.8274 39.126V40.6231C44.8274 40.6231 44.8274 40.648 44.8523 40.648H44.8773C45.1919 40.5806 45.972 40.5334 46.8712 40.5247C46.9624 40.5239 47.0547 40.5235 47.1479 40.5235Z" fill="url(#paint8_linear_438_54967)"/>
<path fill-rule="evenodd" clip-rule="evenodd" d="M32.4406 20.1667H57.3929C60.1127 20.1667 62.3334 22.3876 62.3334 25.1072V50.0595C62.3334 52.7791 60.1127 55 57.3929 55H32.4406C29.7208 55 27.5 52.7791 27.5 50.0595V25.1072C27.5 22.3876 29.7208 20.1667 32.4406 20.1667ZM39.5009 29.3333C39.1455 29.3333 38.8226 29.4542 38.5704 29.6579C37.7503 29.6616 37.1053 30.309 37.1053 31.13V33.2008L36.7562 32.8516C36.4817 32.5771 36.1074 32.4274 35.7082 32.4274C35.3603 32.4274 35.0313 32.5411 34.7708 32.752C34.3768 32.7554 34.0081 32.9048 33.7368 33.1761L32.6888 34.2241C31.7157 35.1723 31.1917 36.4448 31.1667 37.8172V37.8422C31.1667 40.7117 33.4873 43.0322 36.3568 43.0322C36.7061 43.0322 37.0305 43.0073 37.3549 42.9324C37.1802 43.4315 37.0804 43.9555 37.0804 44.5044V44.5294C37.0804 47.3989 39.401 49.7194 42.2705 49.7194C43.043 49.7194 43.7782 49.5497 44.4391 49.2439C45.5259 48.9751 46.4808 48.3618 47.176 47.5203C47.8066 47.9749 48.561 48.2223 49.3319 48.2223C49.9358 48.2223 50.5062 48.0775 51.0106 47.8206C52.6719 47.476 53.9297 46.0172 53.9732 44.2548V41.3104C55.5202 40.7365 56.6181 39.2394 56.6181 37.4927V33.3756C56.6431 32.6021 55.9943 31.9533 55.1709 31.9533H54.0231V30.8055C54.0231 29.9821 53.3744 29.3333 52.5509 29.3333H39.5009Z" fill="url(#paint9_linear_438_54967)"/>
<path fill-rule="evenodd" clip-rule="evenodd" d="M76.7333 22.6499C76.7834 30.3498 76.8333 38.0999 76.8333 45.8499C76.8333 48.0417 76.8353 50.2338 76.8373 52.4256C76.8454 61.1839 76.8535 69.9421 76.7333 78.7C76.7333 83.2 73.5334 86.7499 69.4834 87.7001C68.7335 87.9002 67.8833 88 67.0834 88H22.4834C17.8334 88 14.0334 85.0499 13.0334 80.5498C12.9762 80.1779 12.9189 79.7898 12.8804 79.404C12.8517 79.1153 12.8334 78.828 12.8334 78.55V9.59994C12.8334 5.00004 15.8334 1.25012 20.3334 0.250203C21.0335 0.0998128 21.7333 0 22.4333 0H52.5833C56.6333 0.0501302 60.5334 0.799845 64.1833 2.4998C70.3334 5.35006 74.1334 10.15 75.8334 16.5998C76.3334 18.6001 76.7333 20.5999 76.7333 22.6499ZM68.3333 73.2C70.9334 72.9999 72.4333 71.0502 72.4333 68.6502C72.4501 63.801 72.4556 58.9464 72.4612 54.0936V54.0829C72.4722 44.3778 72.4834 34.6807 72.5834 25.0499C72.5834 22.5501 72.3335 20.0498 71.6833 17.6499C70.3334 12.7 67.4834 8.95003 62.7834 6.69999C59.5335 5.14998 56.0834 4.44995 52.5334 4.44995C45.9387 4.41639 39.3219 4.42756 32.6982 4.43875L32.693 4.43876H32.687C29.3703 4.44458 26.0519 4.44995 22.7334 4.44995C22.3946 4.44995 22.0558 4.4692 21.7169 4.51843C21.5057 4.54932 21.2946 4.59229 21.0834 4.65002C18.7834 5.2498 17.3335 7.25008 17.3335 9.74988V68.6001C17.3335 70.45 18.4833 72.35 20.1334 72.9001C20.9334 73.1498 21.8333 73.3002 22.6833 73.3002H39.5333C39.6304 73.3002 39.7224 73.3105 39.8108 73.3333H54.552C54.6326 73.3123 54.712 73.3002 54.7834 73.3002H66.7833C67.2833 73.3002 67.8334 73.2501 68.3333 73.2Z" fill="url(#paint10_linear_438_54967)"/>
<defs>
<linearGradient id="paint0_linear_438_54967" x1="44.8374" y1="0" x2="44.8374" y2="88" gradientUnits="userSpaceOnUse">
<stop stop-color="#E72D8D"/>
<stop offset="1" stop-color="#A14581"/>
</linearGradient>
<linearGradient id="paint1_linear_438_54967" x1="44.8374" y1="0" x2="44.8374" y2="88" gradientUnits="userSpaceOnUse">
<stop stop-color="#E72D8D"/>
<stop offset="1" stop-color="#A14581"/>
</linearGradient>
<linearGradient id="paint2_linear_438_54967" x1="44.8374" y1="0" x2="44.8374" y2="88" gradientUnits="userSpaceOnUse">
<stop stop-color="#E72D8D"/>
<stop offset="1" stop-color="#A14581"/>
</linearGradient>
<linearGradient id="paint3_linear_438_54967" x1="44.8374" y1="0" x2="44.8374" y2="88" gradientUnits="userSpaceOnUse">
<stop stop-color="#E72D8D"/>
<stop offset="1" stop-color="#A14581"/>
</linearGradient>
<linearGradient id="paint4_linear_438_54967" x1="44.8374" y1="0" x2="44.8374" y2="88" gradientUnits="userSpaceOnUse">
<stop stop-color="#E72D8D"/>
<stop offset="1" stop-color="#A14581"/>
</linearGradient>
<linearGradient id="paint5_linear_438_54967" x1="44.8374" y1="0" x2="44.8374" y2="88" gradientUnits="userSpaceOnUse">
<stop stop-color="#E72D8D"/>
<stop offset="1" stop-color="#A14581"/>
</linearGradient>
<linearGradient id="paint6_linear_438_54967" x1="44.8374" y1="0" x2="44.8374" y2="88" gradientUnits="userSpaceOnUse">
<stop stop-color="#E72D8D"/>
<stop offset="1" stop-color="#A14581"/>
</linearGradient>
<linearGradient id="paint7_linear_438_54967" x1="44.8374" y1="0" x2="44.8374" y2="88" gradientUnits="userSpaceOnUse">
<stop stop-color="#E72D8D"/>
<stop offset="1" stop-color="#A14581"/>
</linearGradient>
<linearGradient id="paint8_linear_438_54967" x1="44.8374" y1="0" x2="44.8374" y2="88" gradientUnits="userSpaceOnUse">
<stop stop-color="#E72D8D"/>
<stop offset="1" stop-color="#A14581"/>
</linearGradient>
<linearGradient id="paint9_linear_438_54967" x1="44.8374" y1="0" x2="44.8374" y2="88" gradientUnits="userSpaceOnUse">
<stop stop-color="#E72D8D"/>
<stop offset="1" stop-color="#A14581"/>
</linearGradient>
<linearGradient id="paint10_linear_438_54967" x1="44.8374" y1="0" x2="44.8374" y2="88" gradientUnits="userSpaceOnUse">
<stop stop-color="#E72D8D"/>
<stop offset="1" stop-color="#A14581"/>
</linearGradient>
</defs>
</svg>
