<svg width="88" height="88" viewBox="0 0 88 88" fill="none" xmlns="http://www.w3.org/2000/svg">
<path fill-rule="evenodd" clip-rule="evenodd" d="M11 74.1327V10.7043C11 6.32519 13.9041 2.82188 18.2371 1.99215C18.6981 1.89996 19.159 1.85386 19.5739 1.85386C22.2628 1.85386 24.9518 1.84874 27.6407 1.84362C33.0186 1.83337 38.3965 1.82313 43.7744 1.85386C48.6145 1.89996 53.178 3.19065 57.1884 6.00252C61.1066 8.76829 63.4114 12.5943 64.6099 17.1578C65.2552 19.647 65.4857 23.8878 65.5318 25.3168C65.5318 25.5012 65.624 25.7317 65.7623 25.87C66.8765 26.7178 67.698 27.7311 68.2803 28.8764H71.43C73.7844 28.8764 74.9298 30.0218 74.9298 32.3762V44.3602C74.9298 44.9329 74.8237 45.3996 74.2935 45.6965C73.8693 45.9298 73.4875 45.8874 73.1057 45.6329C72.639 45.3147 72.5966 44.8481 72.5966 44.3178C72.6072 43.0772 72.6072 41.8419 72.6072 40.6066V40.6059V40.6053C72.6072 39.37 72.6072 38.1347 72.6178 36.894C72.6178 36.4486 72.5966 36.1517 72.0239 36.0032C69.7968 35.3457 68.3333 33.8821 67.7181 31.6126L67.707 31.5748C67.6486 31.3762 67.5944 31.1921 67.3151 31.252C67.2569 31.2986 67.1923 31.2812 67.1249 31.2631C67.0694 31.2482 67.012 31.2328 66.9546 31.252C64.3669 31.2944 61.7791 31.2944 59.1702 31.252C59.1128 31.2328 59.0554 31.2482 58.9999 31.2631C58.9324 31.2812 58.8678 31.2986 58.8096 31.252C58.5054 31.268 58.4671 31.4774 58.4301 31.6794C58.4181 31.745 58.4062 31.8099 58.3854 31.8671C57.7067 33.9033 56.3704 35.3245 54.2917 35.9396C53.6342 36.1305 53.5282 36.4486 53.5282 37.0425C53.5494 44.4875 53.5494 51.9537 53.5282 59.3987C53.5282 60.1835 53.5706 60.9258 54.4826 61.1804C55.4159 61.4349 55.7977 60.7774 56.1795 60.0986C56.3296 59.8234 56.4789 59.5483 56.6279 59.2734L56.6282 59.273L56.6283 59.2728C57.2376 58.1496 57.844 57.0318 58.4915 55.9413C58.7884 55.4322 58.7672 55.1565 58.3218 54.7111C56.1795 52.59 55.6704 49.5569 56.9431 46.9267C58.1733 44.3602 60.9095 42.8543 63.8154 43.13C66.6152 43.3845 68.9696 45.442 69.6695 48.3266C70.2634 50.7871 69.6483 52.993 67.803 54.6899C67.0182 55.411 66.7425 56.0898 66.6152 57.1291C66.1698 60.7986 65.5546 64.4468 63.9851 67.8617L63.985 67.8618L63.9849 67.862C63.9001 68.0528 63.8153 68.2437 63.6881 68.5617C64.0987 68.5617 64.497 68.5592 64.8873 68.5568H64.889H64.8895C65.6477 68.5522 66.3754 68.5477 67.103 68.5617C67.5273 68.5617 67.6121 68.3496 67.7181 68.0102C68.3545 65.8467 69.7756 64.4256 71.9179 63.7681C72.4906 63.5984 72.5966 63.3439 72.5966 62.8348C72.586 61.6152 72.586 60.3956 72.586 59.1759C72.586 57.9563 72.586 56.7367 72.5754 55.5171C72.5754 54.6899 72.7451 54.0111 73.6996 53.9263C74.4844 53.8626 74.9086 54.4566 74.9086 55.5383V67.6284C74.9086 69.6647 73.6572 70.8949 71.5997 70.8949H63.2215C62.2246 70.8949 61.1428 72.4221 61.4186 73.3553C61.5202 73.6943 61.7438 73.6676 61.9485 73.6432L61.9487 73.6432C62.0002 73.6371 62.0504 73.6311 62.0973 73.6311C63.7942 73.7159 63.9638 73.9068 63.9638 75.5612V84.4698C63.9638 85.8485 63.6669 86.1242 62.267 86.1242C56.4552 86.1666 50.6435 86.1666 44.8105 86.1666C43.4318 86.1666 43.1349 85.8697 43.1349 84.491C43.1349 83.973 43.1355 83.455 43.1363 82.9371H19.8044C14.826 82.9832 11 79.1111 11 74.1327ZM43.1393 78.8806C43.1372 77.6752 43.1303 76.4697 43.1137 75.2643C43.1137 74.2886 43.4106 73.6523 44.4712 73.6735C45.0917 73.6735 45.0539 73.3373 45.0179 73.0178C45.0096 72.9442 45.0014 72.8714 45.0014 72.8038V72.803C45.0161 69.5101 45.0307 66.2171 45.0244 62.9312H30.2681C30.1298 62.9312 29.9915 62.9312 29.8532 62.839C29.4844 62.6546 29.254 62.0093 29.3 61.3639C29.3461 60.7186 29.6227 60.2115 29.9915 60.1193H30.2681C33.0338 60.1654 35.7535 60.1654 38.4732 60.1654H45.0138C45.0104 59.6126 45.0064 59.0601 45.0014 58.5078C44.9979 58.1306 45.0134 57.7614 45.0481 57.3998H31.2822C30.1758 57.3998 29.4383 56.9389 29.3 56.2013C29.1617 55.556 29.761 54.8645 30.6368 54.6802C30.8673 54.6341 31.0978 54.6341 31.3743 54.6341H45.751C46.0822 53.8674 46.5244 53.1382 47.0801 52.4415C47.6138 51.7674 48.1351 51.0891 48.6567 50.4103L48.6569 50.4101C49.317 49.5513 49.9776 48.6917 50.6647 47.8388C51.0889 47.3085 51.2374 46.7783 51.2374 46.0995C51.2162 41.5392 51.2162 36.9789 51.2374 32.4398C51.2374 30.6739 51.8483 29.5868 53.1196 29.1288C52.5129 28.4421 51.9062 27.7599 51.2881 27.7599C50.6658 27.7599 50.055 28.4514 49.4442 29.1428C48.8334 29.8343 48.2227 30.5257 47.6004 30.5257C46.9781 30.5257 46.3673 29.8343 45.7565 29.1428C45.1458 28.4514 44.535 27.7599 43.9127 27.7599C43.2904 27.7599 42.6796 28.4514 42.0688 29.1428C41.4581 29.8343 40.8473 30.5257 40.225 30.5257C39.6027 30.5257 38.9919 29.8343 38.3811 29.1428C37.7704 28.4514 37.1596 27.7599 36.5373 27.7599C35.9841 27.7599 35.4195 28.4514 34.8548 29.1428L34.8548 29.1428C34.2901 29.8343 33.7254 30.5257 33.1723 30.5257C32.5961 30.5257 32.0314 29.8343 31.4667 29.1428C30.902 28.4514 30.3374 27.7599 29.7612 27.7599C29.0697 27.7599 26.5344 29.8343 26.1195 30.2952C26.0367 30.3885 25.959 30.4736 25.8865 30.5531C25.3136 31.1809 25.0593 31.4596 25.0593 32.6461V75.0546C24.9671 76.3914 24.6906 77.7282 23.6765 78.8806H43.1393ZM57.0595 28.8764H60.4561L60.2917 28.7535C59.7385 28.3393 59.0913 27.8547 58.6174 27.7599C58.2159 27.7599 57.6485 28.2843 57.0595 28.8764ZM61.4292 25.3629C61.4292 24.2105 61.1527 20.108 60.6456 18.0797C59.6776 14.392 57.7415 11.3497 54.5609 9.18316C51.1959 6.97054 47.4621 6.00252 43.4978 6.00252C38.2121 5.97179 32.9264 5.98203 27.6407 5.99228C24.9979 5.9974 22.355 6.00252 19.7122 6.00252C19.3434 6.00252 18.9746 6.04861 18.6059 6.14081C16.4854 6.64787 15.1026 8.49171 15.1026 10.7043V74.3632C15.1487 75.8383 15.7479 77.0368 16.9464 77.9587C18.2832 79.0189 19.4356 78.6501 20.1731 77.3133C20.7263 76.2992 20.9568 75.1929 20.9568 74.0405V32.6922C20.9568 31.8625 21.049 30.9867 21.2334 30.203C21.5099 29.8343 23.8608 27.806 25.5203 26.6536C26.0473 26.2913 26.6802 25.8113 27.2991 25.3419C28.4127 24.4974 29.4813 23.687 29.8072 23.6574C30.3374 23.6574 30.8675 24.3488 31.3976 25.0402C31.9277 25.7317 32.4578 26.4231 32.9879 26.4231C33.6602 26.4231 34.4776 25.5382 35.1878 24.7694C35.7436 24.1677 36.2337 23.6371 36.5373 23.6574C36.8168 23.6574 37.4776 24.2593 38.1827 24.9015L38.1827 24.9015C38.9889 25.636 39.853 26.4231 40.2711 26.4231C40.9374 26.3975 41.7747 25.5312 42.5058 24.7749L42.5058 24.7748C43.0896 24.1708 43.6057 23.6369 43.9127 23.6574C44.5298 23.6802 45.1355 24.3603 45.7412 25.0403C46.3571 25.7318 46.9729 26.4231 47.6004 26.4231C48.2227 26.4231 48.8334 25.7317 49.4442 25.0402C50.055 24.3488 50.6658 23.6574 51.2881 23.6574C51.7507 23.6574 52.7437 24.5746 53.5877 25.3543C54.2572 25.9728 54.833 26.5047 54.9758 26.4231C55.4336 26.1179 55.8603 25.6879 56.2741 25.2708C56.9852 24.5541 57.6584 23.8757 58.3869 23.9339C58.931 23.9587 59.4618 24.3018 60.0007 24.6502C60.4662 24.9512 60.9378 25.2561 61.4292 25.3629ZM22.201 19.3704H28.7006C30.9132 19.3704 33.172 19.3704 35.4307 19.4165C36.2604 19.4165 36.8596 18.7712 36.8596 17.9875C36.8135 17.2039 36.2143 16.6507 35.3846 16.6507H21.9706C21.1869 16.6507 20.6338 17.1578 20.5416 17.8492C20.4494 18.4946 20.8643 19.1399 21.5096 19.3243C21.7401 19.3704 21.9706 19.3704 22.201 19.3704ZM51.1499 19.6927H51.7492C52.3945 19.6927 52.8555 19.1856 52.8555 18.5864V17.9871C52.8555 17.3879 52.3484 16.8808 51.7492 16.8808H51.1499C50.5507 16.8808 50.0436 17.3879 50.0436 17.9871V18.5864C50.0436 19.1856 50.5507 19.6927 51.1499 19.6927ZM37.4594 51.822H30.9599C30.7294 51.822 30.4989 51.822 30.2684 51.7759C29.6231 51.5915 29.2082 50.9462 29.3004 50.3008C29.3926 49.6094 29.9457 49.1023 30.7294 49.1023H44.1434C44.9731 49.1023 45.5723 49.6555 45.6184 50.4391C45.6184 51.2227 45.0192 51.8681 44.1895 51.8681C41.9307 51.822 39.7181 51.822 37.4594 51.822ZM47.567 73.6312C47.2264 73.5177 47.2703 73.2677 47.3098 73.0425C47.3219 72.9733 47.3337 72.9063 47.3337 72.8464C47.3231 70.3966 47.3231 67.9414 47.3231 65.4863C47.3231 63.0312 47.3231 60.576 47.3125 58.1261C47.3125 56.705 47.7367 55.4324 48.6063 54.287C49.1086 53.6262 49.6108 52.9735 50.1541 52.2676C50.4827 51.8406 50.8263 51.3941 51.194 50.9145V59.2715C51.194 59.7382 51.194 60.1836 51.2789 60.629C51.5758 62.135 52.6364 63.2379 54.0363 63.4925C55.6271 63.7894 57.027 63.2167 57.8542 61.838C58.9784 59.9291 60.0389 57.9777 61.0994 56.0263C61.5237 55.2627 62.1176 54.8597 62.9872 54.9869C63.8993 55.1142 64.4507 55.8566 64.3235 56.9383C63.666 61.9441 62.5842 66.8013 59.5935 71.0011C59.2117 71.5313 59.0208 72.0616 59.1056 72.6767C59.1905 73.4191 59.0208 73.6948 58.1724 73.6948C55.8669 73.6524 53.5614 73.6477 51.2497 73.643H51.2492H51.2469C50.0928 73.6406 48.9372 73.6383 47.7792 73.6312V73.6313H47.5671V73.6311L47.567 73.6312ZM45.6588 83.8121H61.1427C61.2063 83.8121 61.2912 83.8121 61.3336 83.7908C61.3413 83.673 61.3487 83.5552 61.3557 83.4374V83.8121C61.6923 83.7943 61.6738 83.5694 61.6585 83.3846C61.6572 83.3683 61.6559 83.3524 61.6548 83.3369C61.6535 83.3177 61.6526 83.2992 61.6526 83.2818V76.5792C61.6526 76.5592 61.6536 76.5382 61.655 76.5167C61.656 76.4998 61.6574 76.4827 61.6587 76.4653C61.6739 76.2691 61.691 76.0489 61.3557 76.0489V76.3812C61.3517 76.3137 61.3475 76.2462 61.3433 76.1788C61.3401 76.1284 61.3369 76.0781 61.3336 76.0277C56.2642 76.0277 51.1736 76.0277 46.083 75.9853C45.4467 75.9853 45.4255 76.261 45.4255 76.7489C45.4361 77.8306 45.4361 78.9071 45.4361 79.9835C45.4361 81.06 45.4361 82.1364 45.4467 83.2182C45.4467 83.2609 45.4382 83.3101 45.4293 83.3616C45.3984 83.5399 45.3626 83.7461 45.6586 83.8121H45.6588ZM62.6707 45.4422C64.9614 45.4422 66.6159 46.6088 67.2734 48.3269C67.9309 50.045 67.4007 52.0388 66.0432 53.2478C65.6826 53.5659 65.428 53.6508 64.9826 53.3326C63.6888 52.4418 62.2677 52.3569 60.889 53.0993C60.3163 53.3963 60.0617 53.2054 59.7436 52.8236C58.577 51.3812 58.2588 49.8116 59.0224 48.0936C59.786 46.3543 61.2071 45.5059 62.6707 45.4422ZM53.5271 33.7764V32.928C53.5059 31.2735 54.0574 30.8493 55.7331 31.2099C56.1882 31.3047 56.0838 31.5013 55.9656 31.7238L55.9656 31.7238L55.9656 31.7239L55.9655 31.7239L55.9655 31.724L55.9654 31.7242C55.9515 31.7505 55.9374 31.777 55.924 31.8038C55.4573 32.7371 54.7149 33.3734 53.5271 33.7764ZM72.5542 66.0373C72.7027 68.7311 72.5966 68.8159 70.0513 68.4978C70.4331 67.2676 71.2604 66.4828 72.5542 66.0373ZM72.5332 33.7549C71.2393 33.3095 70.4333 32.5247 70.0303 31.3157C72.5756 30.9551 72.7029 31.0612 72.5332 33.7549Z" fill="url(#paint0_linear_107_326504)"/>
<defs>
<linearGradient id="paint0_linear_107_326504" x1="42.9649" y1="1.83337" x2="42.9649" y2="86.1666" gradientUnits="userSpaceOnUse">
<stop stop-color="#E72D8D"/>
<stop offset="1" stop-color="#A14581"/>
</linearGradient>
</defs>
</svg>
