<svg width="88" height="88" viewBox="0 0 88 88" fill="none" xmlns="http://www.w3.org/2000/svg">
<path fill-rule="evenodd" clip-rule="evenodd" d="M43.9776 32.5327C42.7001 32.5327 41.4386 32.5484 40.1612 32.5327C39.0554 32.5171 38.4946 31.9562 38.4635 30.8502L38.4621 30.7965C38.4156 29.1471 38.3675 27.4405 39.5695 26.1308C40.2236 25.4142 40.3483 24.8534 40.0054 23.9345C39.4137 22.3147 40.2079 20.4299 41.6722 19.4487C43.1674 18.4363 45.0366 18.4828 46.4852 19.5575C47.9184 20.6322 48.5725 22.4861 47.9184 24.1995C47.6223 24.9783 47.7781 25.4142 48.3078 26.0064C49.7407 27.564 49.7251 29.511 49.4447 31.4424C49.3357 32.1899 48.7126 32.5327 47.9495 32.5327H43.9776ZM43.9308 29.6198H45.6285C46.5787 29.6198 46.8124 29.2617 46.423 28.3737C45.8932 27.1746 44.8343 27.0341 43.6971 27.0654C42.5911 27.1119 41.828 27.5949 41.5008 28.4672C41.454 28.5917 41.4386 28.7166 41.3918 28.841C41.3292 29.071 41.3195 29.2541 41.3809 29.3848C41.4565 29.5468 41.6407 29.6283 41.9681 29.6198C42.2358 29.6135 42.4985 29.6122 42.7592 29.6131L43.0226 29.614L43.6036 29.6185L43.9308 29.6198ZM44.0241 21.6451C43.3856 21.6294 42.778 22.2054 42.7626 22.8598C42.7469 23.5142 43.3077 24.1372 43.9462 24.1525C44.6317 24.1838 45.2702 23.5608 45.2702 22.8912C45.2702 22.2681 44.6785 21.6603 44.0241 21.6451Z" fill="url(#paint0_linear_127_337862)"/>
<path fill-rule="evenodd" clip-rule="evenodd" d="M51.6099 36.5982C52.4355 36.5982 53.1986 36.489 53.9152 36.053C54.7408 35.2429 55.0055 34.2304 54.9901 33.0935C54.9825 31.5489 54.9823 30.0043 54.9841 28.4596L54.9865 26.842C54.9883 25.7638 54.9901 24.6855 54.9901 23.6073C54.9901 23.0514 54.9926 22.4955 54.995 21.9396C54.9986 21.1934 55.002 20.4473 54.9993 19.7012C54.9979 19.3525 54.9952 19.0038 54.9905 18.6552L54.9849 18.2805L54.9798 18.0026L54.9744 17.7662C54.9277 15.7104 53.8219 14.6667 51.7968 14.6667H36.1584C34.1646 14.6667 33.0118 15.7883 33.0118 17.7819C33.0044 20.2902 33.0006 22.7949 33.0004 25.2992C32.9999 28.0049 33.0037 30.7106 33.0118 33.4207C33.0275 35.4765 34.1489 36.5825 36.2049 36.5825C37.4356 36.5865 38.6653 36.5883 39.8946 36.5892C41.2327 36.5906 42.5701 36.5906 43.9075 36.5906C45.2944 36.5906 46.6812 36.5906 48.0685 36.5919C49.2484 36.5928 50.4287 36.5946 51.6099 36.5982ZM35.9187 29.0791C35.9164 27.9042 35.9091 26.7292 35.9091 25.5543C35.9091 24.9622 35.9102 24.37 35.9111 23.7783C35.914 22.0036 35.9169 20.2311 35.8934 18.4672C35.878 17.8132 36.0337 17.5483 36.7501 17.5483C41.5476 17.5796 46.3608 17.5796 51.1583 17.5483C51.5005 17.5483 51.7164 17.6114 51.8478 17.7519C51.9856 17.8996 52.0304 18.1324 52.0304 18.4672C51.9993 23.2492 51.9993 28.0156 52.0304 32.7977C52.0461 33.5452 51.7656 33.7166 51.0804 33.7166C46.3297 33.6853 41.5787 33.6853 36.828 33.7166C36.1427 33.7166 35.878 33.5295 35.8934 32.7977C35.9173 31.5579 35.9209 30.3185 35.9187 29.0791Z" fill="url(#paint1_linear_127_337862)"/>
<path d="M33.9952 46.37H44.6062C48.235 46.37 51.8639 46.37 55.4925 46.3467C56.9441 46.3467 57.8451 45.7281 58.0702 44.6517C58.3705 43.1854 57.1943 42.1085 55.2423 42.1085C50.5207 42.0933 45.7993 42.0982 41.0776 42.1031C38.7168 42.1058 36.356 42.1085 33.9952 42.1085C32.2934 42.1085 31.1923 42.979 31.1673 44.2618C31.1422 45.5223 32.2684 46.37 33.9952 46.37Z" fill="url(#paint2_linear_127_337862)"/>
<path d="M31.1673 52.2567C31.1923 53.4733 32.2932 54.3223 33.9193 54.3223H55.2857L55.3502 54.3228L55.501 54.3241C55.9291 54.33 56.3548 54.3353 56.7619 54.1388C57.7627 53.6568 58.238 52.9223 58.0628 51.8897C57.8627 50.7192 56.887 50.0532 55.3108 50.0532C48.1802 50.0304 41.0749 50.0304 33.9444 50.0532C32.2431 50.0532 31.1422 50.9717 31.1673 52.2567Z" fill="url(#paint3_linear_127_337862)"/>
<path d="M59.5014 77.6566C58.9591 77.6356 58.5001 77.406 58.1038 77.0309C57.9451 76.872 57.7855 76.714 57.6255 76.556L57.263 76.1997C56.7026 75.6483 56.1422 75.0968 55.6004 74.5271C54.7034 73.5674 54.6824 72.4619 55.5169 71.6482C56.3096 70.8765 57.4362 70.9392 58.3958 71.8361C58.7528 72.1678 59.0025 72.4001 59.2082 72.5312C59.3443 72.6176 59.4611 72.6602 59.577 72.6575C59.7518 72.6539 59.9243 72.5483 60.1573 72.3397C60.3149 72.1982 60.5002 72.0098 60.7322 71.7735C61.3998 71.1061 62.0466 70.4383 62.735 69.7915C63.5903 68.9989 64.6961 68.9783 65.4469 69.7083C66.219 70.4383 66.3233 71.5649 65.5304 72.4202C64.0075 74.0472 62.4221 75.5914 60.8365 77.1558C60.482 77.4897 60.023 77.6356 59.5014 77.6566Z" fill="url(#paint4_linear_127_337862)"/>
<path fill-rule="evenodd" clip-rule="evenodd" d="M76.8334 45.8499C76.8334 38.0999 76.7835 30.3498 76.7334 22.6499C76.7334 20.5999 76.3335 18.6001 75.8335 16.5998C74.1336 10.15 70.3335 5.35006 64.1834 2.4998C60.5335 0.799845 56.6334 0.0501302 52.5834 0H22.4334C21.7334 0 21.0336 0.0998128 20.3336 0.250203C15.8335 1.25012 12.8335 5.00004 12.8335 9.59994V78.55C12.8335 79.1999 12.9335 79.8999 13.0336 80.5499C14.0335 85.0499 17.8335 88 22.4836 88H67.0836C67.8834 88 68.7336 87.9002 69.4835 87.7001C73.5336 86.7499 76.7334 83.2 76.7334 78.7C76.8536 69.9419 76.8455 61.1839 76.8375 52.4255C76.8354 50.2336 76.8334 48.0417 76.8334 45.8499ZM72.4334 68.6502L72.4332 68.7075C70.1766 62.9685 63.9999 59.3336 57.581 60.842C55.4739 61.3428 53.68 62.4273 51.9483 63.6582C49.2858 66.3608 47.7418 69.4912 47.6695 73.3333H39.8109L39.7624 73.3217L39.7284 73.3154L39.6854 73.3092C39.6518 73.3051 39.6178 73.3025 39.5831 73.3011L39.5334 73.3002H22.6834C22.2282 73.3002 21.7589 73.2572 21.2981 73.1785C20.8984 73.1104 20.5052 73.016 20.1335 72.9001C18.4834 72.35 17.3336 70.45 17.3336 68.6001V9.74988C17.3336 7.25008 18.7835 5.2498 21.0835 4.65002C21.214 4.61467 21.3444 4.58468 21.4749 4.55961C21.5953 4.53678 21.7157 4.51799 21.8361 4.50277C21.9659 4.48621 22.0955 4.47412 22.2253 4.46562C22.3947 4.45487 22.5641 4.44995 22.7335 4.44995C26.052 4.44995 29.3704 4.44458 32.6871 4.43876H32.7253C36.8217 4.43205 40.9154 4.42533 45.003 4.42847C47.5158 4.43071 50.0263 4.43697 52.5335 4.44995C56.0836 4.44995 59.5336 5.14998 62.7836 6.69999C67.4835 8.95003 70.3335 12.7 71.6835 17.6499C72.3336 20.0498 72.5836 22.5501 72.5836 25.0499C72.4835 34.6807 72.4723 44.3778 72.4614 54.0829C72.4582 56.8486 72.4551 59.6147 72.4497 62.3799C72.4457 64.4706 72.4406 66.5608 72.4334 68.6502ZM51.573 73.3383C51.5519 78.345 55.4948 82.3505 60.4183 82.3711C65.425 82.3921 69.4095 78.4703 69.4305 73.5052C69.4513 68.4564 65.5293 64.4093 60.5225 64.3676C55.6409 64.326 51.5938 68.3731 51.573 73.3383Z" fill="url(#paint5_linear_127_337862)"/>
<defs>
<linearGradient id="paint0_linear_127_337862" x1="44.8375" y1="0" x2="44.8375" y2="88" gradientUnits="userSpaceOnUse">
<stop stop-color="#E72D8D"/>
<stop offset="1" stop-color="#A14581"/>
</linearGradient>
<linearGradient id="paint1_linear_127_337862" x1="44.8375" y1="0" x2="44.8375" y2="88" gradientUnits="userSpaceOnUse">
<stop stop-color="#E72D8D"/>
<stop offset="1" stop-color="#A14581"/>
</linearGradient>
<linearGradient id="paint2_linear_127_337862" x1="44.8375" y1="0" x2="44.8375" y2="88" gradientUnits="userSpaceOnUse">
<stop stop-color="#E72D8D"/>
<stop offset="1" stop-color="#A14581"/>
</linearGradient>
<linearGradient id="paint3_linear_127_337862" x1="44.8375" y1="0" x2="44.8375" y2="88" gradientUnits="userSpaceOnUse">
<stop stop-color="#E72D8D"/>
<stop offset="1" stop-color="#A14581"/>
</linearGradient>
<linearGradient id="paint4_linear_127_337862" x1="44.8375" y1="0" x2="44.8375" y2="88" gradientUnits="userSpaceOnUse">
<stop stop-color="#E72D8D"/>
<stop offset="1" stop-color="#A14581"/>
</linearGradient>
<linearGradient id="paint5_linear_127_337862" x1="44.8375" y1="0" x2="44.8375" y2="88" gradientUnits="userSpaceOnUse">
<stop stop-color="#E72D8D"/>
<stop offset="1" stop-color="#A14581"/>
</linearGradient>
</defs>
</svg>
