<svg width="65" height="89" viewBox="0 0 65 89" fill="none" xmlns="http://www.w3.org/2000/svg">
<path d="M22.1918 79.2361C22.1697 79.2801 22.1036 79.4456 22.048 79.6102C21.4411 81.3264 20.9045 83.0645 20.2175 84.7375C19.8289 85.6297 19.3166 86.4631 18.6958 87.2132C18.3882 87.6047 17.965 87.8896 17.4861 88.0279C17.0071 88.1661 16.4968 88.1505 16.0272 87.9833C15.4393 87.8191 14.8729 87.5863 14.3397 87.2898C13.8317 87.0258 13.4273 86.5992 13.1913 86.0784C12.9554 85.5577 12.9015 84.973 13.0385 84.4181C13.3693 83.0645 13.7998 81.7224 14.2515 80.4023C18.8502 66.9243 23.46 53.4512 28.0811 39.983C28.2134 39.5975 28.5442 39.1681 28.456 38.8421C28.3678 38.5162 27.8605 38.3141 27.5624 38.0272C26.5297 37.1393 25.7801 35.9693 25.4057 34.6614C25.0314 33.3536 25.0488 31.9651 25.4558 30.667C25.7921 29.3281 26.5202 28.1193 27.5472 27.1945C28.5743 26.2696 29.854 25.6706 31.2234 25.4736C32.1768 25.2953 33.1563 25.3094 34.104 25.5152C35.0518 25.7209 35.9487 26.114 36.7416 26.6714C37.5345 27.2288 38.2074 27.9391 38.7205 28.7602C39.2336 29.5814 39.5765 30.4969 39.729 31.4526C39.9818 32.8348 39.8157 34.2609 39.2519 35.5485C38.6881 36.8361 37.7522 37.9267 36.5638 38.6808C36.3539 38.8242 36.2109 38.9252 36.3187 39.2422C37.5979 42.73 38.8626 46.2178 40.1129 49.7056C43.9068 60.2787 47.6933 70.8521 51.4724 81.4258C51.8631 82.4902 52.1728 83.5826 52.3987 84.6935C52.5157 85.2148 52.4608 85.7598 52.2422 86.2474C52.0237 86.7351 51.6531 87.1392 51.1857 87.3998C50.3766 87.9661 49.4054 88.2558 48.4175 88.2253C48.0529 88.189 47.6998 88.0772 47.3809 87.8972C47.0619 87.7172 46.784 87.4729 46.565 87.1798C45.8311 86.2435 45.2674 85.186 44.8995 84.0555C43.6089 80.4797 42.3259 76.9039 41.0506 73.3281C40.8521 72.778 40.8521 72.778 40.2787 72.976C34.6541 74.9785 29.0297 76.9772 23.4056 78.9721C23.0071 79.0862 22.6017 79.1744 22.1918 79.2361ZM35.5362 57.9907C34.4997 55.1084 33.4942 52.2807 32.4813 49.453H32.349C31.136 53.0174 29.9116 56.5712 28.6545 60.2684C31.0257 59.4869 33.2532 58.7494 35.5362 57.9907ZM34.3788 70.8418C34.3805 70.801 34.3766 70.7601 34.3674 70.7204C34.2456 70.6764 34.1223 70.621 34.003 70.577C31.4981 69.73 28.9946 68.8792 26.4924 68.0247C26.106 67.8927 25.9851 68.0027 25.8634 68.3547C25.2236 70.2561 24.5766 72.1595 23.9226 74.0647C23.8671 74.2082 23.845 74.3622 23.7789 74.6148C27.3868 73.3387 30.8828 72.0967 34.3788 70.8418ZM39.1654 68.2455C39.1213 68.0695 39.1098 68.001 39.0878 67.9375L37.0032 62.0954C36.893 61.776 36.7165 61.798 36.4519 61.886C33.9154 62.7329 31.3789 63.5728 28.8424 64.4057C28.6905 64.4649 28.5431 64.5349 28.4013 64.6151C32.0508 65.8464 35.5697 67.024 39.1646 68.2447L39.1654 68.2455Z" fill="url(#paint0_linear_1513_5232)"/>
<path d="M47.0061 60.7255C46.4988 59.4159 46.0136 58.1292 45.5285 56.8636C54.9913 51.4649 60.2958 43.4772 60.5727 32.5632C60.7019 28.7628 60.0047 24.9796 58.5292 21.4735C57.0536 17.9675 54.8346 14.8217 52.0246 12.2525C49.3072 9.65492 46.0908 7.633 42.5692 6.30855C39.0476 4.9841 35.2938 4.38452 31.5338 4.54594C27.7738 4.70735 24.0854 5.62642 20.6909 7.24778C17.2964 8.86914 14.266 11.1592 11.7822 13.9801C8.08084 18.1691 5.74214 23.3809 5.07583 28.9254C4.40952 34.4699 5.44704 40.0856 8.05098 45.0288C10.6689 49.9977 14.7326 54.06 19.7079 56.6819C19.2333 58.0021 18.7595 59.3116 18.2743 60.6749C13.55 58.3169 9.48835 54.8226 6.45573 50.5074C2.45147 44.9424 0.411705 38.2089 0.656286 31.3628C0.726284 27.2126 1.63096 23.1186 3.31666 19.3237C5.00236 15.5288 7.43476 12.1102 10.4696 9.27076C15.5873 4.24343 22.2977 1.14746 29.4517 0.512987C36.906 -0.287407 44.4048 1.55547 50.6335 5.71855C56.8622 9.88163 61.4233 16.0992 63.5171 23.2813C65.611 30.4634 65.104 38.1516 62.085 44.9981C59.0661 51.8445 53.7278 57.4124 47.0061 60.7255Z" fill="url(#paint1_linear_1513_5232)"/>
<path d="M21.2508 52.3661C16.8216 49.84 13.3682 45.9067 11.4415 41.1938C9.51478 36.4808 9.22585 31.2599 10.6208 26.364C12.0157 21.4682 15.0142 17.1795 19.1376 14.1823C23.2611 11.1851 28.272 9.65217 33.3708 9.82807C38.3902 9.94379 43.2314 11.7071 47.1448 14.8451C51.0582 17.9831 53.8255 22.3206 55.0183 27.1862C56.2111 32.0517 55.7629 37.1739 53.743 41.7596C51.7231 46.3453 48.2442 50.1388 43.8449 52.5527C43.3483 51.2765 42.8525 50.0004 42.3559 48.7015C42.9407 48.294 43.5247 47.92 44.0761 47.4913C47.939 44.6269 50.5202 40.3638 51.2641 35.6198C51.8167 32.2975 51.4623 28.8882 50.2382 25.7497C49.0142 22.6113 46.9656 19.8596 44.3076 17.7836C41.6497 15.7077 38.4804 14.384 35.1328 13.9518C31.7851 13.5196 28.3825 13.9946 25.2824 15.3271C22.1823 16.6596 19.4991 18.8004 17.5145 21.5245C15.5299 24.2487 14.3172 27.4557 14.0038 30.8089C13.6904 34.162 14.2878 37.5374 15.7333 40.5807C17.1788 43.624 19.419 46.2228 22.2187 48.1041C22.2981 48.1369 22.3693 48.1869 22.4272 48.2503C22.485 48.3137 22.5281 48.3891 22.5534 48.4711C22.5787 48.553 22.5855 48.6395 22.5734 48.7244C22.5613 48.8093 22.5306 48.8905 22.4834 48.9622C22.0423 50.0664 21.6674 51.2008 21.2508 52.3661Z" fill="url(#paint2_linear_1513_5232)"/>
<path d="M41.0087 45.1915C40.6003 44.1574 40.2033 43.1543 39.8284 42.1438C39.7949 42.0558 39.906 41.8797 39.9918 41.8023C41.9829 40.1233 43.3341 37.8119 43.8186 35.2562C44.1361 33.7482 44.147 32.1919 43.8504 30.6797C43.5539 29.1674 42.956 27.73 42.0923 26.4525C41.2285 25.1751 40.1164 24.0837 38.822 23.243C37.5275 22.4023 36.0771 21.8295 34.5566 21.5585C33.1106 21.2775 31.6227 21.2888 30.1811 21.592C28.7396 21.8951 27.3736 22.4838 26.1643 23.3232C24.9549 24.1626 23.9268 25.2356 23.1407 26.4787C22.3546 27.7217 21.8266 29.1095 21.5879 30.5599C21.1822 32.4608 21.2774 34.4341 21.8644 36.2873C22.4514 38.1405 23.51 39.8102 24.9369 41.1333C25.0371 41.2053 25.1071 41.3116 25.1337 41.4318C25.1602 41.5521 25.1413 41.6779 25.0807 41.7852C24.6943 42.7973 24.3308 43.8314 23.9559 44.8656C21.4857 43.1519 19.593 40.7327 18.5264 37.926C17.4599 35.1192 17.2694 32.0563 17.98 29.1395C18.777 25.8719 20.6426 22.9624 23.2821 20.8706C25.9215 18.7788 29.1844 17.6241 32.5551 17.5887C35.9258 17.5534 39.2122 18.6395 41.8951 20.6755C44.578 22.7115 46.5045 25.5813 47.3701 28.8315C48.1764 31.8793 47.9953 35.1034 46.8525 38.0422C45.7098 40.9809 43.6642 43.4835 41.0087 45.1915Z" fill="url(#paint3_linear_1513_5232)"/>
<defs>
<linearGradient id="paint0_linear_1513_5232" x1="32.7115" y1="88.2275" x2="32.7115" y2="25.3496" gradientUnits="userSpaceOnUse">
<stop stop-color="#A14681"/>
<stop offset="1" stop-color="#EA2D8E"/>
</linearGradient>
<linearGradient id="paint1_linear_1513_5232" x1="32.7119" y1="60.7255" x2="32.7119" y2="0.330078" gradientUnits="userSpaceOnUse">
<stop stop-color="#A14681"/>
<stop offset="1" stop-color="#EA2D8E"/>
</linearGradient>
<linearGradient id="paint2_linear_1513_5232" x1="32.7114" y1="52.5527" x2="32.7114" y2="9.81445" gradientUnits="userSpaceOnUse">
<stop stop-color="#A14681"/>
<stop offset="1" stop-color="#EA2D8E"/>
</linearGradient>
<linearGradient id="paint3_linear_1513_5232" x1="32.7119" y1="45.1915" x2="32.7119" y2="17.5879" gradientUnits="userSpaceOnUse">
<stop stop-color="#A14681"/>
<stop offset="1" stop-color="#EA2D8E"/>
</linearGradient>
</defs>
</svg>
