<svg width="88" height="88" viewBox="0 0 88 88" fill="none" xmlns="http://www.w3.org/2000/svg">
<path fill-rule="evenodd" clip-rule="evenodd" d="M12 9.57022V44.0347V78.3723C12 79.1061 12.0725 79.8491 12.2356 80.5648C13.2322 85.0042 16.974 87.9941 21.5312 87.9941C36.3444 88.0031 51.1485 88.0031 65.9617 87.985C66.7952 87.985 67.6559 87.8672 68.4623 87.6588C72.7024 86.5626 75.52 82.857 75.52 78.4266L75.5201 78.4176V78.4175V78.4174V78.4174V78.4173C75.5291 67.7749 75.5382 57.1415 75.52 46.499C75.511 38.5443 75.4929 30.5895 75.4204 22.6348C75.4023 20.4785 75.0036 18.3494 74.4328 16.2656C72.7658 10.1772 69.2142 5.60192 63.5155 2.77518C59.7284 0.899749 55.6966 0.0390434 51.5018 0.0209233C41.5086 -0.0153169 31.5154 0.00280319 21.5221 0.0209233C20.8336 0.0209233 20.1359 0.0934037 19.4655 0.247425C15.0079 1.24403 12 5.00395 12 9.57022ZM16.3851 78.5263C16.376 67.011 16.376 55.4866 16.376 43.9712V9.63364C16.376 6.54416 18.5504 4.36975 21.649 4.36975C31.606 4.36975 41.5539 4.36975 51.5018 4.37881C54.8088 4.38787 57.9979 5.04019 61.024 6.3992C65.8711 8.59174 68.8428 12.3607 70.238 17.4343C70.8541 19.6812 71.144 21.9825 71.144 24.3109C71.1531 42.3948 71.1531 60.4877 71.144 78.5716C71.144 81.353 68.8881 83.5999 66.0976 83.5999H21.4406C18.632 83.5999 16.3851 81.344 16.3851 78.5263ZM37.4051 46.5481C37.6144 46.5446 37.8236 46.5411 38.0328 46.5411C38.2164 46.5411 38.4 46.5464 38.583 46.5516L38.5832 46.5517H38.5832H38.5833H38.5833H38.5834C38.9477 46.5621 39.3097 46.5725 39.6648 46.5411C40.418 46.4784 40.5592 46.7294 40.3709 47.4356C39.8191 49.5588 39.2948 51.6911 38.77 53.8257L38.77 53.8257L38.77 53.8258L38.7699 53.8259L38.7699 53.826C38.6082 54.4836 38.4465 55.1415 38.2839 55.7993C38.0485 56.7565 38.2682 57.3685 38.9429 57.6823C39.6177 57.9962 40.214 57.7765 40.8103 56.9762C41.0927 56.5996 41.3712 56.2191 41.6497 55.8386L41.6499 55.8383C41.9284 55.4579 42.2069 55.0774 42.4893 54.7009C43.9248 52.7398 45.3642 50.7827 46.8036 48.8255L46.8048 48.8239C48.2444 46.8665 49.6841 44.9091 51.1198 42.9477C51.4964 42.4299 51.7945 41.8807 51.4336 41.2216C51.1041 40.5939 50.5235 40.4998 49.8958 40.5155C49.3914 40.5222 48.8871 40.5203 48.3827 40.5184C47.7102 40.5158 47.0377 40.5132 46.3652 40.5312C45.7061 40.5469 45.5178 40.3743 45.6119 39.6681C45.856 38.0044 46.0608 36.3328 46.2652 34.6644L46.2652 34.6643L46.2652 34.6641L46.2653 34.6639L46.2653 34.6632L46.2654 34.6629L46.2654 34.6626L46.2654 34.6623L46.2655 34.662C46.3502 33.9709 46.4348 33.2803 46.5221 32.5911C46.6162 31.8536 46.4279 31.273 45.7218 30.9749C45 30.661 44.4508 30.9906 44.0271 31.5712C41.0143 35.808 38.0014 40.0604 35.02 44.3129C34.2982 45.3329 34.8945 46.4627 36.1498 46.5411C36.5682 46.5621 36.9866 46.5551 37.405 46.5481H37.4051ZM23.0001 44.2811C23.0315 38.8674 24.8988 34.1913 28.5864 30.2213C28.759 30.033 28.9473 29.8447 29.1513 29.6877C29.7319 29.2641 30.3282 29.2798 30.8774 29.7505C31.3639 30.1585 31.458 30.896 31.0814 31.4609C30.9088 31.7277 30.6891 31.9474 30.4694 32.167C24.1142 38.8831 24.0986 49.7419 30.438 56.4579C30.5009 56.5271 30.5663 56.5937 30.6322 56.6609L30.6323 56.661C30.7308 56.7614 30.8305 56.8629 30.9245 56.9758C31.4266 57.6034 31.3952 58.388 30.8774 58.8902C30.3439 59.408 29.5907 59.408 28.9787 58.8117C27.5194 57.3995 26.3268 55.7832 25.3853 53.9943C23.7376 50.903 23.0158 47.8745 23.0001 44.2811ZM57.7259 58.4357C61.3978 54.4814 63.2808 49.7895 63.3279 43.3088C63.3907 41.8809 62.9042 39.48 62.0882 37.1106C61.0997 34.3959 59.5775 32.0107 57.5533 29.9551C56.8315 29.2176 56.0783 29.1391 55.482 29.704C54.8857 30.269 54.9328 31.1006 55.6232 31.8538C55.6389 31.8852 55.6546 31.9009 55.6703 31.9166C59.248 35.714 60.88 40.2176 60.5818 45.4272C60.3308 49.7111 58.7145 53.3673 55.8272 56.5056C55.7822 56.5541 55.7364 56.6018 55.6909 56.6493C55.5301 56.8169 55.3724 56.9813 55.2623 57.1647C54.9014 57.7767 54.9485 58.373 55.4506 58.8908C55.9214 59.3615 56.5961 59.3929 57.161 58.9693C57.365 58.8123 57.5533 58.624 57.7259 58.4357ZM28.0215 44.3449C28.0058 40.1395 29.5122 36.5461 32.3681 33.5018C32.9801 32.8585 33.7647 32.7643 34.3296 33.2194C35.02 33.7529 35.0357 34.6003 34.3452 35.3378C33.1213 36.6245 32.117 38.0525 31.5521 39.7472C29.8574 44.6901 30.6891 49.1623 34.1569 53.1009L34.157 53.1009C34.2668 53.2108 34.3766 53.3206 34.4708 53.4461C34.9886 54.0895 34.9729 54.8113 34.4237 55.3448C33.9059 55.847 33.1056 55.847 32.525 55.2978C31.5207 54.3249 30.7048 53.2107 30.0143 52.0025C28.6334 49.5232 28.0371 47.2008 28.0215 44.3449ZM53.9599 55.1248C56.8001 52.0963 58.2909 48.5186 58.2909 44.3446C58.2752 40.8924 57.3493 37.958 55.3251 35.1649C54.8387 34.4744 54.3208 33.8154 53.6932 33.2661C53.1596 32.8111 52.3907 32.8268 51.9043 33.2661C51.3551 33.7683 51.2923 34.4744 51.7631 35.1021C51.8468 35.2172 51.9444 35.3183 52.042 35.4194C52.0909 35.47 52.1397 35.5205 52.1867 35.5728C55.6233 39.4958 56.4549 43.9523 54.7759 48.8638C54.211 50.5428 53.2067 51.9865 51.9984 53.2732C51.2452 54.0735 51.2923 54.9836 52.0769 55.5014C52.6418 55.8937 53.3479 55.7682 53.9599 55.1248Z" fill="black"/>
<path fill-rule="evenodd" clip-rule="evenodd" d="M12 9.57022V44.0347V78.3723C12 79.1061 12.0725 79.8491 12.2356 80.5648C13.2322 85.0042 16.974 87.9941 21.5312 87.9941C36.3444 88.0031 51.1485 88.0031 65.9617 87.985C66.7952 87.985 67.6559 87.8672 68.4623 87.6588C72.7024 86.5626 75.52 82.857 75.52 78.4266L75.5201 78.4176V78.4175V78.4174V78.4174V78.4173C75.5291 67.7749 75.5382 57.1415 75.52 46.499C75.511 38.5443 75.4929 30.5895 75.4204 22.6348C75.4023 20.4785 75.0036 18.3494 74.4328 16.2656C72.7658 10.1772 69.2142 5.60192 63.5155 2.77518C59.7284 0.899749 55.6966 0.0390434 51.5018 0.0209233C41.5086 -0.0153169 31.5154 0.00280319 21.5221 0.0209233C20.8336 0.0209233 20.1359 0.0934037 19.4655 0.247425C15.0079 1.24403 12 5.00395 12 9.57022ZM16.3851 78.5263C16.376 67.011 16.376 55.4866 16.376 43.9712V9.63364C16.376 6.54416 18.5504 4.36975 21.649 4.36975C31.606 4.36975 41.5539 4.36975 51.5018 4.37881C54.8088 4.38787 57.9979 5.04019 61.024 6.3992C65.8711 8.59174 68.8428 12.3607 70.238 17.4343C70.8541 19.6812 71.144 21.9825 71.144 24.3109C71.1531 42.3948 71.1531 60.4877 71.144 78.5716C71.144 81.353 68.8881 83.5999 66.0976 83.5999H21.4406C18.632 83.5999 16.3851 81.344 16.3851 78.5263ZM37.4051 46.5481C37.6144 46.5446 37.8236 46.5411 38.0328 46.5411C38.2164 46.5411 38.4 46.5464 38.583 46.5516L38.5832 46.5517H38.5832H38.5833H38.5833H38.5834C38.9477 46.5621 39.3097 46.5725 39.6648 46.5411C40.418 46.4784 40.5592 46.7294 40.3709 47.4356C39.8191 49.5588 39.2948 51.6911 38.77 53.8257L38.77 53.8257L38.77 53.8258L38.7699 53.8259L38.7699 53.826C38.6082 54.4836 38.4465 55.1415 38.2839 55.7993C38.0485 56.7565 38.2682 57.3685 38.9429 57.6823C39.6177 57.9962 40.214 57.7765 40.8103 56.9762C41.0927 56.5996 41.3712 56.2191 41.6497 55.8386L41.6499 55.8383C41.9284 55.4579 42.2069 55.0774 42.4893 54.7009C43.9248 52.7398 45.3642 50.7827 46.8036 48.8255L46.8048 48.8239C48.2444 46.8665 49.6841 44.9091 51.1198 42.9477C51.4964 42.4299 51.7945 41.8807 51.4336 41.2216C51.1041 40.5939 50.5235 40.4998 49.8958 40.5155C49.3914 40.5222 48.8871 40.5203 48.3827 40.5184C47.7102 40.5158 47.0377 40.5132 46.3652 40.5312C45.7061 40.5469 45.5178 40.3743 45.6119 39.6681C45.856 38.0044 46.0608 36.3328 46.2652 34.6644L46.2652 34.6643L46.2652 34.6641L46.2653 34.6639L46.2653 34.6632L46.2654 34.6629L46.2654 34.6626L46.2654 34.6623L46.2655 34.662C46.3502 33.9709 46.4348 33.2803 46.5221 32.5911C46.6162 31.8536 46.4279 31.273 45.7218 30.9749C45 30.661 44.4508 30.9906 44.0271 31.5712C41.0143 35.808 38.0014 40.0604 35.02 44.3129C34.2982 45.3329 34.8945 46.4627 36.1498 46.5411C36.5682 46.5621 36.9866 46.5551 37.405 46.5481H37.4051ZM23.0001 44.2811C23.0315 38.8674 24.8988 34.1913 28.5864 30.2213C28.759 30.033 28.9473 29.8447 29.1513 29.6877C29.7319 29.2641 30.3282 29.2798 30.8774 29.7505C31.3639 30.1585 31.458 30.896 31.0814 31.4609C30.9088 31.7277 30.6891 31.9474 30.4694 32.167C24.1142 38.8831 24.0986 49.7419 30.438 56.4579C30.5009 56.5271 30.5663 56.5937 30.6322 56.6609L30.6323 56.661C30.7308 56.7614 30.8305 56.8629 30.9245 56.9758C31.4266 57.6034 31.3952 58.388 30.8774 58.8902C30.3439 59.408 29.5907 59.408 28.9787 58.8117C27.5194 57.3995 26.3268 55.7832 25.3853 53.9943C23.7376 50.903 23.0158 47.8745 23.0001 44.2811ZM57.7259 58.4357C61.3978 54.4814 63.2808 49.7895 63.3279 43.3088C63.3907 41.8809 62.9042 39.48 62.0882 37.1106C61.0997 34.3959 59.5775 32.0107 57.5533 29.9551C56.8315 29.2176 56.0783 29.1391 55.482 29.704C54.8857 30.269 54.9328 31.1006 55.6232 31.8538C55.6389 31.8852 55.6546 31.9009 55.6703 31.9166C59.248 35.714 60.88 40.2176 60.5818 45.4272C60.3308 49.7111 58.7145 53.3673 55.8272 56.5056C55.7822 56.5541 55.7364 56.6018 55.6909 56.6493C55.5301 56.8169 55.3724 56.9813 55.2623 57.1647C54.9014 57.7767 54.9485 58.373 55.4506 58.8908C55.9214 59.3615 56.5961 59.3929 57.161 58.9693C57.365 58.8123 57.5533 58.624 57.7259 58.4357ZM28.0215 44.3449C28.0058 40.1395 29.5122 36.5461 32.3681 33.5018C32.9801 32.8585 33.7647 32.7643 34.3296 33.2194C35.02 33.7529 35.0357 34.6003 34.3452 35.3378C33.1213 36.6245 32.117 38.0525 31.5521 39.7472C29.8574 44.6901 30.6891 49.1623 34.1569 53.1009L34.157 53.1009C34.2668 53.2108 34.3766 53.3206 34.4708 53.4461C34.9886 54.0895 34.9729 54.8113 34.4237 55.3448C33.9059 55.847 33.1056 55.847 32.525 55.2978C31.5207 54.3249 30.7048 53.2107 30.0143 52.0025C28.6334 49.5232 28.0371 47.2008 28.0215 44.3449ZM53.9599 55.1248C56.8001 52.0963 58.2909 48.5186 58.2909 44.3446C58.2752 40.8924 57.3493 37.958 55.3251 35.1649C54.8387 34.4744 54.3208 33.8154 53.6932 33.2661C53.1596 32.8111 52.3907 32.8268 51.9043 33.2661C51.3551 33.7683 51.2923 34.4744 51.7631 35.1021C51.8468 35.2172 51.9444 35.3183 52.042 35.4194C52.0909 35.47 52.1397 35.5205 52.1867 35.5728C55.6233 39.4958 56.4549 43.9523 54.7759 48.8638C54.211 50.5428 53.2067 51.9865 51.9984 53.2732C51.2452 54.0735 51.2923 54.9836 52.0769 55.5014C52.6418 55.8937 53.3479 55.7682 53.9599 55.1248Z" fill="url(#paint0_linear_438_54993)"/>
<defs>
<linearGradient id="paint0_linear_438_54993" x1="43.7652" y1="0" x2="43.7652" y2="88" gradientUnits="userSpaceOnUse">
<stop stop-color="#E72D8D"/>
<stop offset="1" stop-color="#A14581"/>
</linearGradient>
</defs>
</svg>
