<svg width="88" height="88" viewBox="0 0 88 88" fill="none" xmlns="http://www.w3.org/2000/svg">
<path fill-rule="evenodd" clip-rule="evenodd" d="M50.3514 49.5169H43.6808C42.9768 49.5326 42.2081 49.5232 41.399 49.5133C40.0853 49.4971 38.6645 49.4797 37.2409 49.5664C34.6601 49.7313 32.6069 51.9246 32.5987 54.5138L32.5941 55.3893C32.5861 56.8559 32.5781 58.3263 32.5987 59.7909C32.6234 61.6544 33.481 63.0727 35.0229 64.0869C35.9546 64.7053 37.0101 64.8455 38.0985 64.8455C40.5474 64.8537 42.9881 64.8537 45.4371 64.8455C45.7422 64.8455 45.9813 64.9279 46.2204 65.1258C47.9355 66.5441 49.6506 67.9623 51.3739 69.3723C51.4141 69.4035 51.4536 69.4439 51.4936 69.4846C51.6012 69.5942 51.7116 69.7068 51.8439 69.6527C51.9986 69.5908 51.9768 69.4268 51.9563 69.2721C51.9495 69.2207 51.9428 69.1702 51.9428 69.1249L51.9429 69.1167C51.9511 67.7837 51.9593 66.4589 51.9428 65.1258C51.9428 64.7795 52.05 64.6228 52.3799 64.5074C54.3258 63.8065 55.6616 61.8936 55.6698 59.8157C55.6781 58.0429 55.6863 56.2701 55.6698 54.4973C55.6533 53.0625 55.0762 51.8587 54.0455 50.8774C53.0065 49.8962 51.7449 49.5169 50.3514 49.5169ZM40.7536 56.9792H40.7453C40.7453 56.8348 40.7458 56.6904 40.7464 56.5461C40.7479 56.1138 40.7494 55.6824 40.7371 55.2559C40.7288 54.9508 40.8113 54.7859 41.1494 54.8188C41.2127 54.8255 41.278 54.8254 41.3424 54.8254C41.5968 54.8251 41.8372 54.8249 41.8832 55.2394C41.9079 55.4455 42.0729 55.2888 42.1471 55.2064C42.5346 54.7941 43.0046 54.6869 43.5406 54.7446C43.8044 54.7776 44.0765 54.8601 44.225 55.0827C44.4641 55.429 44.629 55.429 44.9341 55.1239C45.3711 54.6869 45.9318 54.6292 46.509 54.8271C47.0614 55.0167 47.2923 55.462 47.3748 55.9897C47.4841 56.6742 47.473 57.3627 47.4619 58.0524C47.4571 58.351 47.4522 58.651 47.4572 58.9499C47.4572 59.1395 47.3748 59.2302 47.1851 59.2302C46.9625 59.222 46.7481 59.222 46.5255 59.2302C46.2699 59.2467 46.1874 59.123 46.1874 58.8839C46.1929 58.4335 46.1911 57.9867 46.1892 57.5387C46.1883 57.3147 46.1874 57.0889 46.1874 56.8637C46.1874 56.6411 46.1627 56.4185 46.0885 56.2123C45.9895 55.9402 45.8081 55.7753 45.5113 55.7588C45.2227 55.7423 45.0083 55.866 44.8681 56.1134C44.7527 56.3113 44.7362 56.5257 44.7362 56.7483C44.7362 56.9819 44.7353 57.2156 44.7344 57.4492C44.7325 57.9164 44.7307 58.3837 44.7362 58.8509C44.7444 59.1148 44.6537 59.2302 44.3816 59.222C44.2524 59.22 44.1412 59.2202 44.0455 59.2203C43.7315 59.2206 43.5842 59.2207 43.5167 59.1475C43.457 59.0827 43.4595 58.9608 43.4642 58.7311C43.4663 58.6271 43.4689 58.5009 43.4664 58.348C43.4609 57.9906 43.4627 57.6333 43.4645 57.276C43.4655 57.0974 43.4664 56.9187 43.4664 56.7401C43.4664 56.5422 43.4499 56.3525 43.3757 56.1711C43.1778 55.7094 42.6501 55.6022 42.2955 55.9567C42.0729 56.1711 42.0151 56.4515 42.0151 56.7483C42.0151 56.9819 42.0142 57.2156 42.0133 57.4492C42.0115 57.9164 42.0096 58.3837 42.0151 58.8509C42.0234 59.1148 41.9327 59.2302 41.6606 59.222C41.5398 59.2202 41.4349 59.22 41.3438 59.22C41.0227 59.2196 40.8727 59.2195 40.8042 59.1447C40.7441 59.0791 40.7466 58.9561 40.7514 58.7252C40.7535 58.6205 40.7561 58.4936 40.7536 58.3397C40.7481 58.0374 40.7499 57.735 40.7517 57.4327C40.7527 57.2815 40.7536 57.1304 40.7536 56.9792ZM50.3298 54.7224L50.4009 54.7199C50.4286 54.7234 50.4603 54.7268 50.4949 54.7304L50.5604 54.7371C50.6804 54.7493 50.8248 54.764 50.9616 54.7859C51.4481 54.8848 51.547 55.1652 51.2832 55.6022C51.2007 55.7423 51.0935 55.7341 50.9699 55.6846C50.7142 55.5774 50.4421 55.5527 50.1618 55.5857C49.9721 55.6104 49.8155 55.7011 49.7742 55.899C49.7248 56.1134 49.8402 56.2536 50.0134 56.336C50.1821 56.4204 50.3596 56.4915 50.5363 56.5623C50.6014 56.5884 50.6664 56.6145 50.7307 56.6411C51.4151 56.938 51.7284 57.4244 51.646 58.0841C51.58 58.653 51.1183 59.0736 50.4421 59.2137C49.8649 59.3374 49.296 59.2879 48.7353 59.1313C48.3402 59.0184 48.4221 58.791 48.5021 58.5689C48.5273 58.499 48.5523 58.4296 48.5621 58.3644C48.6069 58.0895 48.7509 58.1567 48.8863 58.22C48.9255 58.2383 48.964 58.2562 48.9992 58.2655L49.0815 58.2882L49.1266 58.3009C49.3895 58.3749 49.6541 58.4494 49.9309 58.4139C50.1618 58.3892 50.3762 58.315 50.4092 58.0429C50.4421 57.7955 50.2772 57.6636 50.0793 57.5729C49.9572 57.5147 49.8309 57.4647 49.7034 57.4143C49.6502 57.3932 49.5968 57.3721 49.5434 57.3502C48.7848 57.0452 48.4302 56.5669 48.5127 55.9897C48.6116 55.3136 49.1311 54.8436 49.9062 54.7446C50.0044 54.7323 50.1072 54.7292 50.2453 54.725L50.3298 54.7224ZM37.4388 54.9343C37.7604 54.7611 38.115 54.7116 38.4778 54.7116C38.5457 54.7201 38.6147 54.7267 38.6842 54.7333C38.8172 54.7459 38.9527 54.7588 39.088 54.7859C39.6322 54.9013 39.6487 54.9425 39.492 55.4702C39.426 55.6846 39.3353 55.7671 39.1127 55.6846C38.8818 55.6022 38.6345 55.5692 38.3871 55.5939C38.1727 55.6104 37.9748 55.6846 37.9253 55.9237C37.8759 56.1546 38.0408 56.2783 38.2222 56.3608C38.3582 56.4267 38.4963 56.4844 38.6345 56.5422C38.7726 56.5999 38.9107 56.6576 39.0467 56.7236C39.5827 56.9792 39.8548 57.3997 39.8053 58.0099C39.7558 58.6118 39.4095 58.9581 38.8736 59.1395C38.2057 59.3786 37.5213 59.3292 36.8534 59.123C36.492 59.0086 36.575 58.7973 36.6556 58.5921C36.6854 58.5164 36.7148 58.4416 36.7215 58.3727C36.749 58.118 36.8972 58.1736 37.0414 58.2277C37.0699 58.2384 37.0983 58.2491 37.1255 58.2573L37.1704 58.2715C37.4688 58.3661 37.7683 58.461 38.0902 58.4139C38.3129 58.3809 38.5355 58.3067 38.5685 58.0429C38.6015 57.8037 38.4201 57.6718 38.2304 57.5811C38.0927 57.5142 37.9532 57.4549 37.8144 57.3958C37.6623 57.3312 37.5112 57.2669 37.3646 57.1936C36.9111 56.9627 36.6555 56.6081 36.6802 56.0722C36.705 55.5362 36.9853 55.1734 37.4388 54.9343Z" fill="url(#paint0_linear_99_315086)"/>
<path d="M43.0433 18.27C43.0433 17.8434 43.0419 17.4154 43.0405 16.987C43.0378 16.1289 43.035 15.2683 43.0433 14.414C43.0557 13.2198 43.4289 12.8467 44.5982 12.8342H48.392C49.213 12.8342 49.6732 13.2323 49.6857 13.9289C49.6981 14.6254 49.2005 15.1105 48.392 15.123C47.6084 15.1479 46.8123 15.1479 46.0286 15.123C45.5684 15.1105 45.4067 15.2971 45.4067 15.7449C45.4191 17.4491 45.4191 19.1408 45.4067 20.8449C45.4067 21.2554 45.5559 21.4544 45.9913 21.4419C46.1098 21.441 46.2184 21.4408 46.3178 21.4406C46.9109 21.4392 47.1783 21.4386 47.2968 21.3055C47.394 21.1963 47.391 20.9979 47.3857 20.6367C47.3835 20.49 47.3809 20.3164 47.3845 20.111C47.3898 19.8711 47.3883 19.6312 47.3868 19.3913C47.3847 19.0714 47.3827 18.7516 47.3969 18.4317C47.4218 17.673 47.9069 17.1505 48.5537 17.1381C49.1881 17.1256 49.6981 17.5859 49.7105 18.3447C49.7479 19.7503 49.7603 21.1683 49.7105 22.5739C49.6857 23.3824 49.2379 23.7805 48.4293 23.8053C47.0859 23.8427 45.7301 23.8427 44.3867 23.8053C43.4787 23.7805 43.0557 23.3078 43.0433 22.3624C43.035 21.459 43.0378 20.55 43.0405 19.6392C43.0419 19.1831 43.0433 18.7266 43.0433 18.27Z" fill="url(#paint1_linear_99_315086)"/>
<path d="M41.082 19.7131C41.0807 19.257 41.0793 18.8009 41.0793 18.3448C41.0793 18.0626 41.0798 17.7809 41.0803 17.4995L41.0803 17.4945C41.0823 16.3635 41.0843 15.2373 41.0544 14.1032C41.042 13.3568 40.5942 12.8593 39.9598 12.8344C39.2632 12.8095 38.7905 13.22 38.7283 14.0285C38.6869 14.5263 38.6886 15.0327 38.6903 15.5334C38.6907 15.6332 38.691 15.7329 38.691 15.8322C38.691 16.5099 38.691 16.8489 38.5217 17.0109C38.3523 17.173 38.0133 17.1578 37.3352 17.1275L37.2979 17.1258C36.8749 17.1134 36.7008 16.9517 36.7132 16.5288C36.7381 15.7202 36.7381 14.9117 36.7132 14.1032C36.6884 13.332 36.2157 12.8468 35.544 12.8468C34.8474 12.8468 34.4245 13.3071 34.4245 14.1156C34.4162 15.0025 34.4189 15.8838 34.4217 16.7669C34.4231 17.2092 34.4245 17.6519 34.4245 18.0961C34.4369 19.0414 34.8474 19.4643 35.7928 19.4768C36.564 19.5017 37.3227 19.5017 38.094 19.4768C38.5542 19.4643 38.7532 19.5763 38.7283 20.0987C38.6786 20.9072 38.691 21.7158 38.7283 22.5243C38.7656 23.2831 39.2259 23.7682 39.8478 23.7931C40.532 23.8304 41.0668 23.2706 41.0793 22.4497C41.0876 21.5375 41.0848 20.6253 41.082 19.7131Z" fill="url(#paint2_linear_99_315086)"/>
<path d="M45.7235 44.705C44.2119 44.7234 42.9339 44.2626 41.7787 43.5068C38.8355 41.5712 36.6111 38.9967 35.1119 35.8015C34.6326 34.7815 34.3807 33.6939 34.4237 32.5572C34.479 30.935 35.0934 29.5587 36.3592 28.5018C36.4483 28.4272 36.5367 28.3505 36.6253 28.2736C36.7995 28.1225 36.9747 27.9705 37.158 27.8321C37.7356 27.3774 38.2579 27.3896 38.8232 27.8689C38.9768 27.998 39.1243 28.1516 39.2471 28.3113C39.8247 29.0978 40.4023 29.8843 40.728 30.8122C40.9861 31.5556 40.8632 32.2193 40.261 32.7661C39.9476 33.0488 39.6343 33.3253 39.2963 33.5711C38.7064 34.0073 38.559 34.4374 38.731 35.1502C38.8478 35.6233 39.0751 36.0534 39.3455 36.4467C40.1873 37.6879 41.1397 38.8369 42.3809 39.7095C42.7188 39.9491 43.0813 40.1334 43.5053 40.1703C43.9231 40.2072 44.2734 40.0843 44.5622 39.7832C44.8633 39.4637 45.1951 39.1749 45.5269 38.8861C46.1413 38.3577 46.8295 38.2778 47.5238 38.6464C48.5746 39.2056 49.4655 39.9798 50.1906 40.9199C50.6207 41.4791 50.6084 42.0075 50.1476 42.4806C49.5638 43.0767 48.9555 43.6665 48.1997 44.0659C47.3887 44.5022 46.5407 44.7357 45.7235 44.705Z" fill="url(#paint3_linear_99_315086)"/>
<path fill-rule="evenodd" clip-rule="evenodd" d="M75.9 22.65C75.95 30.35 76 38.1 76 45.85C76 48.0401 76.002 50.2301 76.004 52.4202C76.012 61.1801 76.02 69.9401 75.9 78.7C75.9 83.2 72.7 86.75 68.65 87.7C67.9 87.9 67.05 88 66.25 88H21.65C17 88 13.2 85.05 12.2 80.55C12.1 79.9 12 79.2 12 78.55V9.6C12 5 15 1.25 19.5 0.25C20.2 0.1 20.9 0 21.6 0H51.75C55.8 0.05 59.7 0.8 63.35 2.5C69.5 5.35 73.3 10.15 75 16.6C75.5 18.6 75.9 20.6 75.9 22.65ZM67.5 73.2C70.1 73 71.6 71.05 71.6 68.65C71.6167 63.8008 71.6222 58.9461 71.6278 54.0932C71.6389 44.3856 71.65 34.6835 71.75 25.05C71.75 22.55 71.5 20.05 70.85 17.65C69.5 12.7 66.65 8.95 61.95 6.7C58.7 5.15 55.25 4.45 51.7 4.45C45.102 4.41668 38.4817 4.42777 31.854 4.43888C28.5374 4.44444 25.2185 4.45 21.9 4.45C21.35 4.45 20.8 4.5 20.25 4.65C17.95 5.25 16.5 7.25 16.5 9.75V68.6C16.5 70.45 17.65 72.35 19.3 72.9C20.1 73.15 21 73.3 21.85 73.3H38.7C38.7974 73.3 38.8895 73.3105 38.9781 73.3333H53.7178C53.7987 73.3123 53.8785 73.3 53.95 73.3H65.95C66.45 73.3 67 73.25 67.5 73.2Z" fill="url(#paint4_linear_99_315086)"/>
<defs>
<linearGradient id="paint0_linear_99_315086" x1="44.004" y1="0" x2="44.004" y2="88" gradientUnits="userSpaceOnUse">
<stop stop-color="#E72D8D"/>
<stop offset="1" stop-color="#A14581"/>
</linearGradient>
<linearGradient id="paint1_linear_99_315086" x1="44.004" y1="0" x2="44.004" y2="88" gradientUnits="userSpaceOnUse">
<stop stop-color="#E72D8D"/>
<stop offset="1" stop-color="#A14581"/>
</linearGradient>
<linearGradient id="paint2_linear_99_315086" x1="44.004" y1="0" x2="44.004" y2="88" gradientUnits="userSpaceOnUse">
<stop stop-color="#E72D8D"/>
<stop offset="1" stop-color="#A14581"/>
</linearGradient>
<linearGradient id="paint3_linear_99_315086" x1="44.004" y1="0" x2="44.004" y2="88" gradientUnits="userSpaceOnUse">
<stop stop-color="#E72D8D"/>
<stop offset="1" stop-color="#A14581"/>
</linearGradient>
<linearGradient id="paint4_linear_99_315086" x1="44.004" y1="0" x2="44.004" y2="88" gradientUnits="userSpaceOnUse">
<stop stop-color="#E72D8D"/>
<stop offset="1" stop-color="#A14581"/>
</linearGradient>
</defs>
</svg>
