<svg width="124" height="36" viewBox="0 0 124 36" fill="none" xmlns="http://www.w3.org/2000/svg">
<path d="M71.5 24.3525L71.5525 27.6H74.7475C76.2442 27.5941 77.678 26.9974 78.737 25.9398C79.796 24.8822 80.3946 23.4492 80.4025 21.9525V13.1025C80.4025 13.0886 80.397 13.0752 80.3871 13.0654C80.3773 13.0555 80.3639 13.05 80.35 13.05H77.1475C77.1025 13.05 77.1025 13.1025 77.1025 13.1025V21.9525C77.1025 22.2614 77.0415 22.5673 76.9231 22.8526C76.8046 23.1379 76.6311 23.397 76.4123 23.6151C76.1935 23.8332 75.9338 24.0059 75.6481 24.1235C75.3625 24.241 75.0564 24.301 74.7475 24.3H71.5525C71.5386 24.3 71.5252 24.3055 71.5154 24.3154C71.5055 24.3252 71.5 24.3386 71.5 24.3525Z" fill="url(#paint0_linear_630_554)"/>
<path d="M71.5525 21.9525L71.5 7.4475C71.4999 7.4409 71.5013 7.43437 71.504 7.42835C71.5067 7.42234 71.5107 7.417 71.5157 7.4127C71.5207 7.40841 71.5266 7.40527 71.533 7.40351C71.5393 7.40174 71.546 7.4014 71.5525 7.4025H74.7475C74.7475 7.4025 74.8 7.4025 74.8 7.4475V21.9525C74.8001 21.9591 74.7987 21.9656 74.796 21.9716C74.7933 21.9777 74.7893 21.983 74.7843 21.9873C74.7793 21.9916 74.7734 21.9947 74.767 21.9965C74.7607 21.9983 74.754 21.9986 74.7475 21.9975H71.5525V21.9525Z" fill="url(#paint1_linear_630_554)"/>
<path fill-rule="evenodd" clip-rule="evenodd" d="M16 13.8975C15.999 14.9549 16.2064 16.0022 16.6104 16.9794C17.0144 17.9567 17.607 18.8447 18.3544 19.5928C19.1018 20.3409 19.9893 20.9343 20.9661 21.3392C21.943 21.7441 22.9901 21.9525 24.0475 21.9525C26.1944 21.9414 28.2523 21.0938 29.7844 19.5898C31.3164 18.0858 32.2018 16.0438 32.2525 13.8975V13.1475H34.6V14.0475C34.6648 15.3024 35.214 16.4833 36.1318 17.3415C37.0496 18.1998 38.2646 18.6685 39.5211 18.6491C40.7775 18.6296 41.9775 18.1236 42.8683 17.2373C43.7592 16.3511 44.2715 15.1538 44.2975 13.8975V7.4475C44.2975 7.44159 44.2963 7.43574 44.2941 7.43028C44.2918 7.42482 44.2885 7.41986 44.2843 7.41568C44.2801 7.4115 44.2752 7.40819 44.2697 7.40593C44.2643 7.40366 44.2584 7.4025 44.2525 7.4025H40.9975C40.7125 7.7025 38.965 9.5775 37.18 9.765H32.2V7.4475C32.2 7.4025 32.1475 7.4025 32.1475 7.4025H28.9525C28.946 7.4014 28.9393 7.40174 28.933 7.40351C28.9266 7.40527 28.9207 7.40841 28.9157 7.4127C28.9107 7.417 28.9067 7.42234 28.904 7.42835C28.9013 7.43437 28.8999 7.4409 28.9 7.4475V14.7C28.8945 15.2359 28.765 15.7633 28.5217 16.2408C28.2784 16.7183 27.9278 17.133 27.4975 17.4525C26.522 18.2046 25.3315 18.6251 24.1 18.6525C23.4691 18.6545 22.844 18.5317 22.2608 18.2912C21.6775 18.0506 21.1476 17.6971 20.7015 17.251C20.2554 16.8049 19.9019 16.275 19.6613 15.6917C19.4208 15.1085 19.298 14.4834 19.3 13.8525C19.334 12.6059 19.8534 11.4219 20.7475 10.5525L22.9975 8.3025V8.25L20.7475 6H20.65L18.4 8.25C16.9036 9.75389 16.0441 11.7764 16 13.8975ZM40.8775 11.1675V13.9125C40.8923 14.1249 40.8632 14.3382 40.7921 14.5389C40.721 14.7396 40.6093 14.9236 40.464 15.0793C40.3188 15.235 40.143 15.3592 39.9477 15.4441C39.7524 15.529 39.5417 15.5728 39.3288 15.5728C39.1158 15.5728 38.9051 15.529 38.7098 15.4441C38.5145 15.3592 38.3387 15.235 38.1935 15.0793C38.0482 14.9236 37.9365 14.7396 37.8654 14.5389C37.7943 14.3382 37.7652 14.1249 37.78 13.9125L37.75 12.9525C38.9033 12.577 39.9676 11.9695 40.8775 11.1675Z" fill="url(#paint2_linear_630_554)"/>
<path d="M24.7 14.55L22.3975 12.2475V12.15L24.6475 9.9H24.7525L27.0025 12.15V12.2475L24.7 14.55Z" fill="url(#paint3_linear_630_554)"/>
<path d="M64.15 27.3C65.8052 27.2757 67.4599 27.376 69.1 27.6L69.1975 25.95L69.1525 24.3C67.5152 24.0484 65.8582 23.9479 64.2025 24C62.5276 23.9606 60.8528 24.0786 59.2 24.3525V27.6C60.8375 27.3507 62.4943 27.2503 64.15 27.3Z" fill="url(#paint4_linear_630_554)"/>
<path d="M62.2 10.7025C60.558 10.5019 58.9039 10.4167 57.25 10.4475C55.5944 10.4017 53.938 10.5021 52.3 10.7475V7.5C53.9528 7.22612 55.6276 7.1081 57.3025 7.1475C58.9581 7.09957 60.6148 7.19997 62.2525 7.4475L62.2975 9.0975L62.2 10.7025Z" fill="url(#paint5_linear_630_554)"/>
<path d="M33.6475 21.9C33.6475 24.0483 34.5009 26.1085 36.0199 27.6276C37.539 29.1466 39.5992 30 41.7475 30C43.8976 29.997 45.9617 29.1547 47.5 27.6525C49.0066 26.1385 49.8509 24.0884 49.8475 21.9525V20.1L52.8475 21.6C53.4506 21.855 54.0977 21.99 54.7525 21.9975H60.1975C60.204 21.9986 60.2107 21.9983 60.217 21.9965C60.2234 21.9947 60.2293 21.9916 60.2343 21.9873C60.2393 21.983 60.2433 21.9777 60.246 21.9716C60.2487 21.9656 60.2501 21.9591 60.25 21.9525V20.1525L63.3475 21.6C63.9506 21.855 64.5977 21.99 65.2525 21.9975H66.7C67.3491 21.9975 67.9718 21.7401 68.4315 21.2818C68.8912 20.8235 69.1505 20.2016 69.1525 19.5525V13.1025C69.1525 13.0886 69.147 13.0752 69.1371 13.0654C69.1273 13.0555 69.1139 13.05 69.1 13.05H65.8975C65.8525 13.05 65.8525 13.1025 65.8525 13.1025V18.6975H65.2525C64.614 18.6955 63.9831 18.5601 63.4 18.3L60.3025 16.8525V13.1025C60.3025 13.0886 60.297 13.0752 60.2871 13.0654C60.2773 13.0555 60.2639 13.05 60.25 13.05H57.0475C57.0025 13.05 57.0025 13.1025 57.0025 13.1025V18.6975H54.7975C54.1616 18.6947 53.5332 18.5593 52.9525 18.3L49.8475 16.8525V7.4475C49.8475 7.4475 49.8025 7.4475 49.8475 7.4025H46.6525C46.646 7.4014 46.6393 7.40174 46.633 7.40351C46.6266 7.40527 46.6207 7.40841 46.6157 7.4127C46.6107 7.417 46.6067 7.42234 46.604 7.42835C46.6013 7.43437 46.5999 7.4409 46.6 7.4475V21.9C46.6 23.173 46.0943 24.3939 45.1941 25.2941C44.2939 26.1943 43.073 26.7 41.8 26.7C40.527 26.7 39.3061 26.1943 38.4059 25.2941C37.5057 24.3939 37 23.173 37 21.9C37.0565 20.9909 37.3486 20.1121 37.8475 19.35C37.8475 19.3125 37.8475 19.305 37.8475 19.305H37.78C36.7371 19.0083 35.8005 18.4203 35.08 17.61H34.975C34.1517 18.8932 33.6928 20.3761 33.6475 21.9Z" fill="url(#paint6_linear_630_554)"/>
<path d="M102.497 6H90.4975C87.1838 6 84.4975 8.68629 84.4975 12V24C84.4975 27.3137 87.1838 30 90.4975 30H102.497C105.811 30 108.497 27.3137 108.497 24V12C108.497 8.68629 105.811 6 102.497 6Z" fill="url(#paint7_linear_630_554)"/>
<path d="M97.3825 25.9575C97.2655 25.9617 97.1488 25.9412 97.0403 25.8972C96.9317 25.8533 96.8337 25.7869 96.7525 25.7025C96.5893 25.5334 96.4982 25.3075 96.4982 25.0725C96.4982 24.8375 96.5893 24.6117 96.7525 24.4425C96.8337 24.3581 96.9317 24.2917 97.0403 24.2478C97.1488 24.2038 97.2655 24.1833 97.3825 24.1875H102.685V11.8125H97.3825C97.2655 11.8167 97.1488 11.7962 97.0403 11.7522C96.9317 11.7083 96.8337 11.6419 96.7525 11.5575C96.5893 11.3883 96.4982 11.1625 96.4982 10.9275C96.4982 10.6925 96.5893 10.4667 96.7525 10.2975C96.8337 10.2131 96.9317 10.1467 97.0403 10.1028C97.1488 10.0588 97.2655 10.0383 97.3825 10.0425H102.685C103.154 10.0445 103.603 10.2316 103.934 10.5631C104.266 10.8946 104.453 11.3437 104.455 11.8125V24.1875C104.453 24.6563 104.266 25.1054 103.934 25.4369C103.603 25.7684 103.154 25.9555 102.685 25.9575H97.3825ZM95.7625 18.885H89.425C89.308 18.8892 89.1913 18.8687 89.0828 18.8247C88.9742 18.7808 88.8762 18.7144 88.795 18.63C88.6318 18.4608 88.5407 18.235 88.5407 18C88.5407 17.765 88.6318 17.5392 88.795 17.37C88.8762 17.2856 88.9742 17.2192 89.0828 17.1753C89.1913 17.1313 89.308 17.1108 89.425 17.115H95.7625L94.105 15.4575C94.0276 15.3797 93.9665 15.2872 93.9253 15.1854C93.8841 15.0837 93.8636 14.9748 93.865 14.865C93.8638 14.6347 93.9495 14.4124 94.105 14.2425C94.1839 14.1557 94.28 14.0862 94.3871 14.0384C94.4943 13.9906 94.6102 13.9656 94.7275 13.965C94.8459 13.9587 94.9642 13.9783 95.0743 14.0223C95.1844 14.0664 95.2836 14.1338 95.365 14.22L98.5 17.3775C98.583 17.4585 98.6489 17.5554 98.694 17.6623C98.739 17.7692 98.7622 17.884 98.7622 18C98.7622 18.116 98.739 18.2308 98.694 18.3377C98.6489 18.4446 98.583 18.5415 98.5 18.6225L95.365 21.75C95.285 21.836 95.1872 21.9034 95.0783 21.9475C94.9695 21.9915 94.8523 22.0112 94.735 22.005C94.4965 21.9996 94.2699 21.8998 94.105 21.7275C93.9532 21.5571 93.8693 21.3369 93.8693 21.1088C93.8693 20.8806 93.9532 20.6604 94.105 20.49L95.7625 18.885Z" fill="white"/>
<defs>
<linearGradient id="paint0_linear_630_554" x1="62.2098" y1="-33.2165" x2="62.2098" y2="103.658" gradientUnits="userSpaceOnUse">
<stop stop-color="#E3338B"/>
<stop offset="1" stop-color="#A24682"/>
</linearGradient>
<linearGradient id="paint1_linear_630_554" x1="62.2487" y1="-23.8052" x2="62.2487" y2="112.635" gradientUnits="userSpaceOnUse">
<stop stop-color="#E3338B"/>
<stop offset="1" stop-color="#A24682"/>
</linearGradient>
<linearGradient id="paint2_linear_630_554" x1="62.261" y1="-19.1622" x2="62.261" y2="105.678" gradientUnits="userSpaceOnUse">
<stop stop-color="#E3338B"/>
<stop offset="1" stop-color="#A24682"/>
</linearGradient>
<linearGradient id="paint3_linear_630_554" x1="62.2488" y1="-100.452" x2="62.2488" y2="327.832" gradientUnits="userSpaceOnUse">
<stop stop-color="#E3338B"/>
<stop offset="1" stop-color="#A24682"/>
</linearGradient>
<linearGradient id="paint4_linear_630_554" x1="62.2834" y1="-224.557" x2="62.2834" y2="326.601" gradientUnits="userSpaceOnUse">
<stop stop-color="#E3338B"/>
<stop offset="1" stop-color="#A24682"/>
</linearGradient>
<linearGradient id="paint5_linear_630_554" x1="62.2834" y1="-112.689" x2="62.2834" y2="438.731" gradientUnits="userSpaceOnUse">
<stop stop-color="#E3338B"/>
<stop offset="1" stop-color="#A24682"/>
</linearGradient>
<linearGradient id="paint6_linear_630_554" x1="62.2488" y1="-13.2514" x2="62.2488" y2="74.8763" gradientUnits="userSpaceOnUse">
<stop stop-color="#E3338B"/>
<stop offset="1" stop-color="#A24682"/>
</linearGradient>
<linearGradient id="paint7_linear_630_554" x1="62.2487" y1="6" x2="62.2487" y2="30" gradientUnits="userSpaceOnUse">
<stop stop-color="#E3338B"/>
<stop offset="1" stop-color="#A24682"/>
</linearGradient>
</defs>
</svg>